ISO-10303-21;
HEADER;
/* Generated by software containing ST-Developer
 * from STEP Tools, Inc. (www.steptools.com) 
 */
/* OPTION: using custom renumber hook */

FILE_DESCRIPTION(
/* description */ ('STEP AP242 Edition 2',
'CAx-IF Rec.Pracs.---Representation and Presentation of Product Manufa
cturing Information (PMI)---4.0---2014-10-13',
'CAx-IF Rec.Pracs.---3D Tessellated Geometry---0.4---2014-09-14','2;1',
'CAx-IF Rec.Pracs.---User Defined Attributes---1.5---2016-08-15'),
/* implementation_level */ '2;1');

FILE_NAME(
/* name */ 'Housing Copy 1 - Button',
/* time_stamp */ '2026-09-12T20:54:56Z',
/* author */ (''),
/* organization */ (''),
/* preprocessor_version */ 'ST-DEVELOPER v20',
/* originating_system */ 'ONSHAPE BY PTC INC, 1.220',
/* authorisation */ '  ');

FILE_SCHEMA (('AP242_MANAGED_MODEL_BASED_3D_ENGINEERING_MIM_LF { 1 0 10303 442 3 1 4 }'));
ENDSEC;

DATA;
#10=SHAPE_REPRESENTATION_RELATIONSHIP('','',#247,#11);
#11=ADVANCED_BREP_SHAPE_REPRESENTATION('',(#245),#479);
#12=(
BOUNDED_SURFACE()
B_SPLINE_SURFACE(3,2,((#433,#434,#435),(#436,#437,#438),(#439,#440,#441),
(#442,#443,#444),(#445,#446,#447),(#448,#449,#450),(#451,#452,#453)),
 .UNSPECIFIED.,.F.,.F.,.F.)
B_SPLINE_SURFACE_WITH_KNOTS((4,1,1,1,4),(3,3),(-1.57751416096641E-17,0.000626388354001142,
0.0012527767080023,0.00187916506200346,0.00250555341600461),(0.,1.),
 .UNSPECIFIED.)
GEOMETRIC_REPRESENTATION_ITEM()
RATIONAL_B_SPLINE_SURFACE(((1.,0.707106781186548,1.),(1.,0.69835524990757,
1.),(1.,0.682854093707225,1.),(1.,0.674626308728813,1.),(1.,0.68282763377338,
1.),(1.,0.69835520106065,1.),(1.,0.707106781186548,1.)))
REPRESENTATION_ITEM('')
SURFACE()
);
#13=(
BOUNDED_SURFACE()
B_SPLINE_SURFACE(3,2,((#455,#456,#457),(#458,#459,#460),(#461,#462,#463),
(#464,#465,#466),(#467,#468,#469),(#470,#471,#472),(#473,#474,#475)),
 .UNSPECIFIED.,.F.,.F.,.F.)
B_SPLINE_SURFACE_WITH_KNOTS((4,1,1,1,4),(3,3),(-6.50521303491303E-19,0.000628310261318861,
0.00125662052263772,0.00188493078395659,0.00251324104527545),(0.,1.),
 .UNSPECIFIED.)
GEOMETRIC_REPRESENTATION_ITEM()
RATIONAL_B_SPLINE_SURFACE(((1.,0.707106781186548,1.),(1.,0.719871667653595,
1.),(1.,0.746085285383422,1.),(1.,0.76379006336835,1.),(1.,0.746137677285642,
1.),(1.,0.719871763437818,1.),(1.,0.707106781186543,1.)))
REPRESENTATION_ITEM('')
SURFACE()
);
#14=TOROIDAL_SURFACE('',#270,0.0692128038853408,0.0005);
#15=TOROIDAL_SURFACE('',#275,0.0692128038853408,0.0005);
#16=B_SPLINE_CURVE_WITH_KNOTS('',3,(#366,#367,#368,#369,#370,#371,#372),
 .UNSPECIFIED.,.F.,.F.,(4,1,1,1,4),(0.,0.00101658822460006,0.00203317644920012,
0.00304976467380018,0.00406635289840024),.UNSPECIFIED.);
#17=B_SPLINE_CURVE_WITH_KNOTS('',3,(#375,#376,#377,#378,#379,#380,#381),
 .UNSPECIFIED.,.F.,.F.,(4,1,1,1,4),(0.,0.0010176757316206,0.0020353514632412,
0.00305302719486179,0.00407070292648239),.UNSPECIFIED.);
#18=B_SPLINE_CURVE_WITH_KNOTS('',3,(#384,#385,#386,#387,#388,#389,#390),
 .UNSPECIFIED.,.F.,.F.,(4,1,1,1,4),(0.,0.0006367554274197,0.0012735108548394,
0.0019102662822591,0.0025470217096788),.UNSPECIFIED.);
#19=B_SPLINE_CURVE_WITH_KNOTS('',3,(#395,#396,#397,#398,#399,#400,#401),
 .UNSPECIFIED.,.F.,.F.,(4,1,1,1,4),(0.,0.000638719631420423,0.00127743926284085,
0.00191615889426127,0.00255487852568169),.UNSPECIFIED.);
#20=CYLINDRICAL_SURFACE('',#253,0.0013);
#21=CYLINDRICAL_SURFACE('',#255,0.0013);
#22=CYLINDRICAL_SURFACE('',#257,0.0697128038853408);
#23=CYLINDRICAL_SURFACE('',#261,0.0025);
#24=CYLINDRICAL_SURFACE('',#265,0.0025);
#25=CIRCLE('',#250,0.0692128038853408);
#26=CIRCLE('',#252,0.0692128038853408);
#27=CIRCLE('',#254,0.0013);
#28=CIRCLE('',#256,0.0013);
#29=CIRCLE('',#258,0.0697128038853408);
#30=CIRCLE('',#259,0.0697128038853408);
#31=CIRCLE('',#262,0.0025);
#32=CIRCLE('',#263,0.0025);
#33=CIRCLE('',#266,0.0025);
#34=CIRCLE('',#267,0.0025);
#35=CIRCLE('',#271,0.0005);
#36=CIRCLE('',#272,0.0005);
#37=CIRCLE('',#273,0.0005);
#38=CIRCLE('',#274,0.0005);
#39=ORIENTED_EDGE('',*,*,#103,.F.);
#40=ORIENTED_EDGE('',*,*,#104,.T.);
#41=ORIENTED_EDGE('',*,*,#105,.T.);
#42=ORIENTED_EDGE('',*,*,#106,.T.);
#43=ORIENTED_EDGE('',*,*,#107,.F.);
#44=ORIENTED_EDGE('',*,*,#108,.T.);
#45=ORIENTED_EDGE('',*,*,#109,.T.);
#46=ORIENTED_EDGE('',*,*,#110,.F.);
#47=ORIENTED_EDGE('',*,*,#109,.F.);
#48=ORIENTED_EDGE('',*,*,#111,.T.);
#49=ORIENTED_EDGE('',*,*,#103,.T.);
#50=ORIENTED_EDGE('',*,*,#112,.T.);
#51=ORIENTED_EDGE('',*,*,#105,.F.);
#52=ORIENTED_EDGE('',*,*,#113,.T.);
#53=ORIENTED_EDGE('',*,*,#107,.T.);
#54=ORIENTED_EDGE('',*,*,#114,.F.);
#55=ORIENTED_EDGE('',*,*,#115,.T.);
#56=ORIENTED_EDGE('',*,*,#116,.T.);
#57=ORIENTED_EDGE('',*,*,#117,.T.);
#58=ORIENTED_EDGE('',*,*,#118,.T.);
#59=ORIENTED_EDGE('',*,*,#119,.F.);
#60=ORIENTED_EDGE('',*,*,#120,.F.);
#61=ORIENTED_EDGE('',*,*,#121,.T.);
#62=ORIENTED_EDGE('',*,*,#122,.T.);
#63=ORIENTED_EDGE('',*,*,#123,.T.);
#64=ORIENTED_EDGE('',*,*,#124,.F.);
#65=ORIENTED_EDGE('',*,*,#125,.F.);
#66=ORIENTED_EDGE('',*,*,#120,.T.);
#67=ORIENTED_EDGE('',*,*,#126,.T.);
#68=ORIENTED_EDGE('',*,*,#127,.F.);
#69=ORIENTED_EDGE('',*,*,#128,.F.);
#70=ORIENTED_EDGE('',*,*,#124,.T.);
#71=ORIENTED_EDGE('',*,*,#129,.F.);
#72=ORIENTED_EDGE('',*,*,#122,.F.);
#73=ORIENTED_EDGE('',*,*,#130,.T.);
#74=ORIENTED_EDGE('',*,*,#127,.T.);
#75=ORIENTED_EDGE('',*,*,#121,.F.);
#76=ORIENTED_EDGE('',*,*,#125,.T.);
#77=ORIENTED_EDGE('',*,*,#128,.T.);
#78=ORIENTED_EDGE('',*,*,#130,.F.);
#79=ORIENTED_EDGE('',*,*,#112,.F.);
#80=ORIENTED_EDGE('',*,*,#106,.F.);
#81=ORIENTED_EDGE('',*,*,#114,.T.);
#82=ORIENTED_EDGE('',*,*,#110,.T.);
#83=ORIENTED_EDGE('',*,*,#119,.T.);
#84=ORIENTED_EDGE('',*,*,#129,.T.);
#85=ORIENTED_EDGE('',*,*,#126,.F.);
#86=ORIENTED_EDGE('',*,*,#123,.F.);
#87=ORIENTED_EDGE('',*,*,#131,.F.);
#88=ORIENTED_EDGE('',*,*,#104,.F.);
#89=ORIENTED_EDGE('',*,*,#132,.F.);
#90=ORIENTED_EDGE('',*,*,#118,.F.);
#91=ORIENTED_EDGE('',*,*,#132,.T.);
#92=ORIENTED_EDGE('',*,*,#111,.F.);
#93=ORIENTED_EDGE('',*,*,#133,.F.);
#94=ORIENTED_EDGE('',*,*,#115,.F.);
#95=ORIENTED_EDGE('',*,*,#131,.T.);
#96=ORIENTED_EDGE('',*,*,#117,.F.);
#97=ORIENTED_EDGE('',*,*,#134,.F.);
#98=ORIENTED_EDGE('',*,*,#113,.F.);
#99=ORIENTED_EDGE('',*,*,#133,.T.);
#100=ORIENTED_EDGE('',*,*,#108,.F.);
#101=ORIENTED_EDGE('',*,*,#134,.T.);
#102=ORIENTED_EDGE('',*,*,#116,.F.);
#103=EDGE_CURVE('',#135,#136,#155,.T.);
#104=EDGE_CURVE('',#135,#137,#25,.F.);
#105=EDGE_CURVE('',#137,#138,#156,.T.);
#106=EDGE_CURVE('',#138,#136,#157,.T.);
#107=EDGE_CURVE('',#139,#140,#158,.T.);
#108=EDGE_CURVE('',#139,#141,#26,.T.);
#109=EDGE_CURVE('',#141,#142,#159,.T.);
#110=EDGE_CURVE('',#140,#142,#160,.T.);
#111=EDGE_CURVE('',#141,#135,#16,.T.);
#112=EDGE_CURVE('',#136,#142,#27,.T.);
#113=EDGE_CURVE('',#137,#139,#17,.T.);
#114=EDGE_CURVE('',#138,#140,#28,.T.);
#115=EDGE_CURVE('',#143,#144,#18,.T.);
#116=EDGE_CURVE('',#144,#145,#29,.F.);
#117=EDGE_CURVE('',#145,#146,#19,.T.);
#118=EDGE_CURVE('',#146,#143,#30,.T.);
#119=EDGE_CURVE('',#147,#148,#161,.T.);
#120=EDGE_CURVE('',#149,#147,#162,.T.);
#121=EDGE_CURVE('',#149,#150,#163,.T.);
#122=EDGE_CURVE('',#150,#148,#164,.T.);
#123=EDGE_CURVE('',#147,#151,#31,.T.);
#124=EDGE_CURVE('',#152,#151,#165,.T.);
#125=EDGE_CURVE('',#149,#152,#32,.T.);
#126=EDGE_CURVE('',#151,#153,#166,.T.);
#127=EDGE_CURVE('',#154,#153,#167,.T.);
#128=EDGE_CURVE('',#152,#154,#168,.T.);
#129=EDGE_CURVE('',#148,#153,#33,.T.);
#130=EDGE_CURVE('',#150,#154,#34,.T.);
#131=EDGE_CURVE('',#137,#146,#35,.T.);
#132=EDGE_CURVE('',#143,#135,#36,.T.);
#133=EDGE_CURVE('',#144,#141,#37,.T.);
#134=EDGE_CURVE('',#139,#145,#38,.T.);
#135=VERTEX_POINT('',#349);
#136=VERTEX_POINT('',#350);
#137=VERTEX_POINT('',#352);
#138=VERTEX_POINT('',#354);
#139=VERTEX_POINT('',#358);
#140=VERTEX_POINT('',#359);
#141=VERTEX_POINT('',#361);
#142=VERTEX_POINT('',#363);
#143=VERTEX_POINT('',#391);
#144=VERTEX_POINT('',#392);
#145=VERTEX_POINT('',#394);
#146=VERTEX_POINT('',#402);
#147=VERTEX_POINT('',#406);
#148=VERTEX_POINT('',#407);
#149=VERTEX_POINT('',#409);
#150=VERTEX_POINT('',#411);
#151=VERTEX_POINT('',#415);
#152=VERTEX_POINT('',#417);
#153=VERTEX_POINT('',#421);
#154=VERTEX_POINT('',#423);
#155=LINE('',#348,#169);
#156=LINE('',#353,#170);
#157=LINE('',#355,#171);
#158=LINE('',#357,#172);
#159=LINE('',#362,#173);
#160=LINE('',#364,#174);
#161=LINE('',#405,#175);
#162=LINE('',#408,#176);
#163=LINE('',#410,#177);
#164=LINE('',#412,#178);
#165=LINE('',#416,#179);
#166=LINE('',#420,#180);
#167=LINE('',#422,#181);
#168=LINE('',#424,#182);
#169=VECTOR('',#280,1.);
#170=VECTOR('',#283,1.);
#171=VECTOR('',#284,1.);
#172=VECTOR('',#287,1.);
#173=VECTOR('',#290,1.);
#174=VECTOR('',#291,1.);
#175=VECTOR('',#308,1.);
#176=VECTOR('',#309,1.);
#177=VECTOR('',#310,1.);
#178=VECTOR('',#311,1.);
#179=VECTOR('',#316,1.);
#180=VECTOR('',#321,1.);
#181=VECTOR('',#322,1.);
#182=VECTOR('',#323,1.);
#183=EDGE_LOOP('',(#39,#40,#41,#42));
#184=EDGE_LOOP('',(#43,#44,#45,#46));
#185=EDGE_LOOP('',(#47,#48,#49,#50));
#186=EDGE_LOOP('',(#51,#52,#53,#54));
#187=EDGE_LOOP('',(#55,#56,#57,#58));
#188=EDGE_LOOP('',(#59,#60,#61,#62));
#189=EDGE_LOOP('',(#63,#64,#65,#66));
#190=EDGE_LOOP('',(#67,#68,#69,#70));
#191=EDGE_LOOP('',(#71,#72,#73,#74));
#192=EDGE_LOOP('',(#75,#76,#77,#78));
#193=EDGE_LOOP('',(#79,#80,#81,#82));
#194=EDGE_LOOP('',(#83,#84,#85,#86));
#195=EDGE_LOOP('',(#87,#88,#89,#90));
#196=EDGE_LOOP('',(#91,#92,#93,#94));
#197=EDGE_LOOP('',(#95,#96,#97,#98));
#198=EDGE_LOOP('',(#99,#100,#101,#102));
#199=FACE_BOUND('',#183,.T.);
#200=FACE_BOUND('',#184,.T.);
#201=FACE_BOUND('',#185,.T.);
#202=FACE_BOUND('',#186,.T.);
#203=FACE_BOUND('',#187,.T.);
#204=FACE_BOUND('',#188,.T.);
#205=FACE_BOUND('',#189,.T.);
#206=FACE_BOUND('',#190,.T.);
#207=FACE_BOUND('',#191,.T.);
#208=FACE_BOUND('',#192,.T.);
#209=FACE_BOUND('',#193,.T.);
#210=FACE_BOUND('',#194,.T.);
#211=FACE_BOUND('',#195,.T.);
#212=FACE_BOUND('',#196,.T.);
#213=FACE_BOUND('',#197,.T.);
#214=FACE_BOUND('',#198,.T.);
#215=PLANE('',#249);
#216=PLANE('',#251);
#217=PLANE('',#260);
#218=PLANE('',#264);
#219=PLANE('',#268);
#220=PLANE('',#269);
#221=ADVANCED_FACE('',(#199),#215,.F.);
#222=ADVANCED_FACE('',(#200),#216,.T.);
#223=ADVANCED_FACE('',(#201),#20,.T.);
#224=ADVANCED_FACE('',(#202),#21,.T.);
#225=ADVANCED_FACE('',(#203),#22,.T.);
#226=ADVANCED_FACE('',(#204),#217,.T.);
#227=ADVANCED_FACE('',(#205),#23,.T.);
#228=ADVANCED_FACE('',(#206),#218,.F.);
#229=ADVANCED_FACE('',(#207),#24,.T.);
#230=ADVANCED_FACE('',(#208),#219,.T.);
#231=ADVANCED_FACE('',(#209,#210),#220,.F.);
#232=ADVANCED_FACE('',(#211),#14,.T.);
#233=ADVANCED_FACE('',(#212),#12,.T.);
#234=ADVANCED_FACE('',(#213),#13,.T.);
#235=ADVANCED_FACE('',(#214),#15,.T.);
#236=CLOSED_SHELL('',(#221,#222,#223,#224,#225,#226,#227,#228,#229,#230,
#231,#232,#233,#234,#235));
#237=STYLED_ITEM('',(#238),#245);
#238=PRESENTATION_STYLE_ASSIGNMENT((#239));
#239=SURFACE_STYLE_USAGE(.BOTH.,#240);
#240=SURFACE_SIDE_STYLE('',(#241));
#241=SURFACE_STYLE_FILL_AREA(#242);
#242=FILL_AREA_STYLE('',(#243));
#243=FILL_AREA_STYLE_COLOUR('',#244);
#244=COLOUR_RGB('',0.231372549019608,0.380392156862745,0.705882352941177);
#245=MANIFOLD_SOLID_BREP('Button',#236);
#246=SHAPE_DEFINITION_REPRESENTATION(#484,#247);
#247=SHAPE_REPRESENTATION('Button',(#248),#479);
#248=AXIS2_PLACEMENT_3D('',#346,#276,#277);
#249=AXIS2_PLACEMENT_3D('',#347,#278,#279);
#250=AXIS2_PLACEMENT_3D('',#351,#281,#282);
#251=AXIS2_PLACEMENT_3D('',#356,#285,#286);
#252=AXIS2_PLACEMENT_3D('',#360,#288,#289);
#253=AXIS2_PLACEMENT_3D('',#365,#292,#293);
#254=AXIS2_PLACEMENT_3D('',#373,#294,#295);
#255=AXIS2_PLACEMENT_3D('',#374,#296,#297);
#256=AXIS2_PLACEMENT_3D('',#382,#298,#299);
#257=AXIS2_PLACEMENT_3D('',#383,#300,#301);
#258=AXIS2_PLACEMENT_3D('',#393,#302,#303);
#259=AXIS2_PLACEMENT_3D('',#403,#304,#305);
#260=AXIS2_PLACEMENT_3D('',#404,#306,#307);
#261=AXIS2_PLACEMENT_3D('',#413,#312,#313);
#262=AXIS2_PLACEMENT_3D('',#414,#314,#315);
#263=AXIS2_PLACEMENT_3D('',#418,#317,#318);
#264=AXIS2_PLACEMENT_3D('',#419,#319,#320);
#265=AXIS2_PLACEMENT_3D('',#425,#324,#325);
#266=AXIS2_PLACEMENT_3D('',#426,#326,#327);
#267=AXIS2_PLACEMENT_3D('',#427,#328,#329);
#268=AXIS2_PLACEMENT_3D('',#428,#330,#331);
#269=AXIS2_PLACEMENT_3D('',#429,#332,#333);
#270=AXIS2_PLACEMENT_3D('',#430,#334,#335);
#271=AXIS2_PLACEMENT_3D('',#431,#336,#337);
#272=AXIS2_PLACEMENT_3D('',#432,#338,#339);
#273=AXIS2_PLACEMENT_3D('',#454,#340,#341);
#274=AXIS2_PLACEMENT_3D('',#476,#342,#343);
#275=AXIS2_PLACEMENT_3D('',#477,#344,#345);
#276=DIRECTION('',(0.,0.,1.));
#277=DIRECTION('',(1.,0.,0.));
#278=DIRECTION('',(0.,0.,1.));
#279=DIRECTION('',(1.,0.,0.));
#280=DIRECTION('',(0.,-1.,0.));
#281=DIRECTION('',(0.,0.,1.));
#282=DIRECTION('',(1.,0.,0.));
#283=DIRECTION('',(0.,-1.,0.));
#284=DIRECTION('',(-1.,0.,0.));
#285=DIRECTION('',(0.,0.,1.));
#286=DIRECTION('',(1.,0.,0.));
#287=DIRECTION('',(0.,-1.,0.));
#288=DIRECTION('',(0.,0.,1.));
#289=DIRECTION('',(1.,0.,0.));
#290=DIRECTION('',(0.,-1.,0.));
#291=DIRECTION('',(-1.,0.,0.));
#292=DIRECTION('',(0.,-1.,0.));
#293=DIRECTION('',(0.,0.,-1.));
#294=DIRECTION('',(0.,1.,0.));
#295=DIRECTION('',(0.,0.,-1.));
#296=DIRECTION('',(0.,-1.,0.));
#297=DIRECTION('',(0.,0.,-1.));
#298=DIRECTION('',(0.,-1.,0.));
#299=DIRECTION('',(0.,0.,-1.));
#300=DIRECTION('',(0.,0.,1.));
#301=DIRECTION('',(1.,0.,0.));
#302=DIRECTION('',(0.,0.,1.));
#303=DIRECTION('',(1.,0.,0.));
#304=DIRECTION('',(0.,0.,1.));
#305=DIRECTION('',(1.,0.,0.));
#306=DIRECTION('',(0.,0.,-1.));
#307=DIRECTION('',(-1.,0.,0.));
#308=DIRECTION('',(-1.,0.,0.));
#309=DIRECTION('',(0.,1.,0.));
#310=DIRECTION('',(-1.,0.,0.));
#311=DIRECTION('',(0.,1.,0.));
#312=DIRECTION('',(0.,1.,0.));
#313=DIRECTION('',(0.,0.,1.));
#314=DIRECTION('',(0.,-1.,0.));
#315=DIRECTION('',(0.,0.,-1.));
#316=DIRECTION('',(0.,1.,0.));
#317=DIRECTION('',(0.,-1.,0.));
#318=DIRECTION('',(0.,0.,-1.));
#319=DIRECTION('',(0.,0.,-1.));
#320=DIRECTION('',(-1.,0.,0.));
#321=DIRECTION('',(-1.,0.,0.));
#322=DIRECTION('',(0.,1.,0.));
#323=DIRECTION('',(-1.,0.,0.));
#324=DIRECTION('',(0.,1.,0.));
#325=DIRECTION('',(0.,0.,1.));
#326=DIRECTION('',(0.,1.,0.));
#327=DIRECTION('',(0.,0.,-1.));
#328=DIRECTION('',(0.,1.,0.));
#329=DIRECTION('',(0.,0.,-1.));
#330=DIRECTION('',(0.,-1.,0.));
#331=DIRECTION('',(1.,0.,0.));
#332=DIRECTION('',(0.,-1.,0.));
#333=DIRECTION('',(1.,0.,0.));
#334=DIRECTION('',(0.,0.,1.));
#335=DIRECTION('',(1.,0.,0.));
#336=DIRECTION('',(0.990535352830181,-0.137257840554152,0.));
#337=DIRECTION('',(0.137257840554152,0.990535352830181,0.));
#338=DIRECTION('',(-0.995580383355693,0.0939132593265268,0.));
#339=DIRECTION('',(-0.0939132593265268,-0.995580383355693,0.));
#340=DIRECTION('',(0.995580383355693,-0.0939132593265268,-1.72705666322911E-15));
#341=DIRECTION('',(0.0939132593265268,0.995580383355693,0.));
#342=DIRECTION('',(-0.990535352830181,0.137257840554152,0.));
#343=DIRECTION('',(-0.137257840554152,-0.990535352830181,0.));
#344=DIRECTION('',(0.,0.,1.));
#345=DIRECTION('',(1.,0.,0.));
#346=CARTESIAN_POINT('',(0.,0.,0.));
#347=CARTESIAN_POINT('',(0.008,0.05165,-0.0184));
#348=CARTESIAN_POINT('',(0.0065,0.05165,-0.0184));
#349=CARTESIAN_POINT('',(0.0065,0.0491941059399492,-0.0184));
#350=CARTESIAN_POINT('',(0.0065,0.03665,-0.0184));
#351=CARTESIAN_POINT('',(6.93889390390723E-18,-0.0197128038853407,-0.0184));
#352=CARTESIAN_POINT('',(0.0095,0.0488449252315914,-0.0184));
#353=CARTESIAN_POINT('',(0.0095,0.05165,-0.0184));
#354=CARTESIAN_POINT('',(0.0095,0.03665,-0.0184));
#355=CARTESIAN_POINT('',(0.008,0.03665,-0.0184));
#356=CARTESIAN_POINT('',(0.008,0.05165,-0.0158));
#357=CARTESIAN_POINT('',(0.0095,0.05165,-0.0158));
#358=CARTESIAN_POINT('',(0.0095,0.0488449252315914,-0.0158));
#359=CARTESIAN_POINT('',(0.0095,0.03665,-0.0158));
#360=CARTESIAN_POINT('',(6.93889390390723E-18,-0.0197128038853407,-0.0158));
#361=CARTESIAN_POINT('',(0.0065,0.0491941059399492,-0.0158));
#362=CARTESIAN_POINT('',(0.0065,0.05165,-0.0158));
#363=CARTESIAN_POINT('',(0.0065,0.03665,-0.0158));
#364=CARTESIAN_POINT('',(0.008,0.03665,-0.0158));
#365=CARTESIAN_POINT('',(0.0065,0.05165,-0.0171));
#366=CARTESIAN_POINT('',(0.0065,0.0491941059399492,-0.0158));
#367=CARTESIAN_POINT('',(0.00615682274482427,0.0492140271499437,-0.0158));
#368=CARTESIAN_POINT('',(0.00548378993900211,0.0492507581372283,-0.0160810095187288));
#369=CARTESIAN_POINT('',(0.00505841337506436,0.049271939254777,-0.0170986896158784));
#370=CARTESIAN_POINT('',(0.00548255866119059,0.0492508233420898,-0.0181185077695327));
#371=CARTESIAN_POINT('',(0.00615682202273376,0.0492140271918606,-0.0184));
#372=CARTESIAN_POINT('',(0.0065,0.0491941059399492,-0.0184));
#373=CARTESIAN_POINT('',(0.0065,0.03665,-0.0171));
#374=CARTESIAN_POINT('',(0.0095,0.05165,-0.0171));
#375=CARTESIAN_POINT('',(0.0095,0.0488449252315914,-0.0184));
#376=CARTESIAN_POINT('',(0.00984291037202076,0.0488156840823279,-0.0184));
#377=CARTESIAN_POINT('',(0.0105152524197521,0.0487559801246595,-0.0181198789814688));
#378=CARTESIAN_POINT('',(0.0109420357598599,0.0487159975009981,-0.0171014987862891));
#379=CARTESIAN_POINT('',(0.0105166018433556,0.0487558580609294,-0.016080612802764));
#380=CARTESIAN_POINT('',(0.00984291134413945,0.048815683999432,-0.0158));
#381=CARTESIAN_POINT('',(0.0095,0.0488449252315914,-0.0158));
#382=CARTESIAN_POINT('',(0.0095,0.03665,-0.0171));
#383=CARTESIAN_POINT('',(6.93889390390723E-18,-0.0197128038853407,-0.021302));
#384=CARTESIAN_POINT('',(0.00654695662966326,0.049691896131627,-0.0179));
#385=CARTESIAN_POINT('',(0.00633535237712273,0.0497118567951512,-0.0179));
#386=CARTESIAN_POINT('',(0.00591856580963736,0.0497488341936548,-0.0177291622388534));
#387=CARTESIAN_POINT('',(0.00565230169582728,0.049770385481974,-0.017099180783125));
#388=CARTESIAN_POINT('',(0.00591929282584986,0.0497487716212156,-0.0164705867738747));
#389=CARTESIAN_POINT('',(0.0063353544448452,0.0497118566001026,-0.0163));
#390=CARTESIAN_POINT('',(0.00654695662966326,0.049691896131627,-0.0163));
#391=CARTESIAN_POINT('',(0.00654695662966326,0.049691896131627,-0.0179));
#392=CARTESIAN_POINT('',(0.00654695662966326,0.049691896131627,-0.0163));
#393=CARTESIAN_POINT('',(6.93889390390723E-18,-0.0197128038853407,-0.0163));
#394=CARTESIAN_POINT('',(0.00956862892027707,0.0493401929080064,-0.0163));
#395=CARTESIAN_POINT('',(0.00956862892027707,0.0493401929080064,-0.0163));
#396=CARTESIAN_POINT('',(0.00977981074785468,0.0493109295793077,-0.0163));
#397=CARTESIAN_POINT('',(0.0101956445461654,0.0492509444000952,-0.0164694639703238));
#398=CARTESIAN_POINT('',(0.0104639875626316,0.0492101043861445,-0.0171009446596699));
#399=CARTESIAN_POINT('',(0.0101948526941432,0.0492510607833899,-0.0177307777155589));
#400=CARTESIAN_POINT('',(0.00977980739429843,0.0493109300440079,-0.0179));
#401=CARTESIAN_POINT('',(0.00956862892027707,0.0493401929080065,-0.0179));
#402=CARTESIAN_POINT('',(0.00956862892027707,0.0493401929080064,-0.0179));
#403=CARTESIAN_POINT('',(6.93889390390723E-18,-0.0197128038853407,-0.0179));
#404=CARTESIAN_POINT('',(0.008,0.0329,-0.0196));
#405=CARTESIAN_POINT('',(0.008,0.03665,-0.0196));
#406=CARTESIAN_POINT('',(0.0095,0.03665,-0.0196));
#407=CARTESIAN_POINT('',(0.0065,0.03665,-0.0196));
#408=CARTESIAN_POINT('',(0.0095,0.0329,-0.0196));
#409=CARTESIAN_POINT('',(0.0095,0.0329,-0.0196));
#410=CARTESIAN_POINT('',(0.008,0.0329,-0.0196));
#411=CARTESIAN_POINT('',(0.0065,0.0329,-0.0196));
#412=CARTESIAN_POINT('',(0.0065,0.0329,-0.0196));
#413=CARTESIAN_POINT('',(0.0095,0.0329,-0.0171));
#414=CARTESIAN_POINT('',(0.0095,0.03665,-0.0171));
#415=CARTESIAN_POINT('',(0.0095,0.03665,-0.0146));
#416=CARTESIAN_POINT('',(0.0095,0.0329,-0.0146));
#417=CARTESIAN_POINT('',(0.0095,0.0329,-0.0146));
#418=CARTESIAN_POINT('',(0.0095,0.0329,-0.0171));
#419=CARTESIAN_POINT('',(0.008,0.0329,-0.0146));
#420=CARTESIAN_POINT('',(0.008,0.03665,-0.0146));
#421=CARTESIAN_POINT('',(0.0065,0.03665,-0.0146));
#422=CARTESIAN_POINT('',(0.0065,0.0329,-0.0146));
#423=CARTESIAN_POINT('',(0.0065,0.0329,-0.0146));
#424=CARTESIAN_POINT('',(0.008,0.0329,-0.0146));
#425=CARTESIAN_POINT('',(0.0065,0.0329,-0.0171));
#426=CARTESIAN_POINT('',(0.0065,0.03665,-0.0171));
#427=CARTESIAN_POINT('',(0.0065,0.0329,-0.0171));
#428=CARTESIAN_POINT('',(0.008,0.0329,-0.0171));
#429=CARTESIAN_POINT('',(0.008,0.03665,-0.0171));
#430=CARTESIAN_POINT('',(6.93889390390723E-18,-0.0197128038853407,-0.0179));
#431=CARTESIAN_POINT('',(0.0095,0.0488449252315914,-0.0179));
#432=CARTESIAN_POINT('',(0.0065,0.0491941059399492,-0.0179));
#433=CARTESIAN_POINT('',(0.00654695662966326,0.049691896131627,-0.0163));
#434=CARTESIAN_POINT('',(0.00654695662966326,0.049691896131627,-0.0158));
#435=CARTESIAN_POINT('',(0.0065,0.0491941059399492,-0.0158));
#436=CARTESIAN_POINT('',(0.0063345743686486,0.049711930184817,-0.0163000000546002));
#437=CARTESIAN_POINT('',(0.00619965138593581,0.0497246574902922,-0.0157874684629541));
#438=CARTESIAN_POINT('',(0.00615735413269276,0.0492139963026054,-0.0158));
#439=CARTESIAN_POINT('',(0.00591765275493481,0.0497489095662723,-0.0164723029781981));
#440=CARTESIAN_POINT('',(0.0055009179302524,0.0497851316207776,-0.0160530944263419));
#441=CARTESIAN_POINT('',(0.00548471571563419,0.0492507104583678,-0.0160799923798076));
#442=CARTESIAN_POINT('',(0.00565312835445206,0.0497703159413429,-0.0170991904246192));
#443=CARTESIAN_POINT('',(0.0050480349032638,0.049819413446271,-0.0170986365161693));
#444=CARTESIAN_POINT('',(0.00505794658632012,0.0492719633004489,-0.0170986844322694));
#445=CARTESIAN_POINT('',(0.00591689924267309,0.0497489744114009,-0.017727412037774));
#446=CARTESIAN_POINT('',(0.00549963211794003,0.04978523820898,-0.0181464589952985));
#447=CARTESIAN_POINT('',(0.00548350004033606,0.0492507748382216,-0.0181195445520943));
#448=CARTESIAN_POINT('',(0.00633457319084661,0.0497119302959192,-0.0178999999834887));
#449=CARTESIAN_POINT('',(0.00619964943437246,0.0497246576753963,-0.0184125316704275));
#450=CARTESIAN_POINT('',(0.00615735223255879,0.0492139964133477,-0.0184));
#451=CARTESIAN_POINT('',(0.00654695662966326,0.049691896131627,-0.0179));
#452=CARTESIAN_POINT('',(0.00654695662966326,0.049691896131627,-0.0184));
#453=CARTESIAN_POINT('',(0.0065,0.0491941059399492,-0.0184));
#454=CARTESIAN_POINT('',(0.0065,0.0491941059399492,-0.0163));
#455=CARTESIAN_POINT('',(0.00956862892027708,0.0493401929080065,-0.0179));
#456=CARTESIAN_POINT('',(0.00956862892027708,0.0493401929080065,-0.0184));
#457=CARTESIAN_POINT('',(0.0095,0.0488449252315914,-0.0184));
#458=CARTESIAN_POINT('',(0.0097805825540489,0.0493108226306247,-0.0178999999454691));
#459=CARTESIAN_POINT('',(0.00990357902735981,0.0492937790877126,-0.0183822677518167));
#460=CARTESIAN_POINT('',(0.00984195434343333,0.0488157656055349,-0.0184));
#461=CARTESIAN_POINT('',(0.0101964976882562,0.049250815772503,-0.0177290648907738));
#462=CARTESIAN_POINT('',(0.0105360523831367,0.0492011651131715,-0.0180852745683877));
#463=CARTESIAN_POINT('',(0.010512968962124,0.048756189134551,-0.0181222304073591));
#464=CARTESIAN_POINT('',(0.0104631589297258,0.0492102277948177,-0.0171009328318237));
#465=CARTESIAN_POINT('',(0.0109286233108904,0.0491394751503728,-0.0171014362397615));
#466=CARTESIAN_POINT('',(0.0109431855530929,0.0487158922649529,-0.0171015158593135));
#467=CARTESIAN_POINT('',(0.0101973140956371,0.0492506957744885,-0.0164712099020821));
#468=CARTESIAN_POINT('',(0.0105372612940223,0.0492009835970976,-0.0161151968308227));
#469=CARTESIAN_POINT('',(0.0105142861088767,0.0487560699969945,-0.016078216100632));
#470=CARTESIAN_POINT('',(0.00978058414819384,0.0493108224097249,-0.0163000000171159));
#471=CARTESIAN_POINT('',(0.00990358150027716,0.0492937787460496,-0.0158177323193689));
#472=CARTESIAN_POINT('',(0.00984195691544468,0.0488157653866902,-0.0158));
#473=CARTESIAN_POINT('',(0.00956862892027708,0.0493401929080064,-0.0163));
#474=CARTESIAN_POINT('',(0.00956862892027708,0.0493401929080064,-0.0158));
#475=CARTESIAN_POINT('',(0.0095,0.0488449252315913,-0.0158));
#476=CARTESIAN_POINT('',(0.0095,0.0488449252315914,-0.0163));
#477=CARTESIAN_POINT('',(6.93889390390723E-18,-0.0197128038853407,-0.0163));
#478=MECHANICAL_DESIGN_GEOMETRIC_PRESENTATION_REPRESENTATION('',(#237),
#479);
#479=(
GEOMETRIC_REPRESENTATION_CONTEXT(3)
GLOBAL_UNCERTAINTY_ASSIGNED_CONTEXT((#480))
GLOBAL_UNIT_ASSIGNED_CONTEXT((#483,#482,#481))
REPRESENTATION_CONTEXT('Button','TOP_LEVEL_ASSEMBLY_PART')
);
#480=UNCERTAINTY_MEASURE_WITH_UNIT(LENGTH_MEASURE(2.E-5),#483,
'DISTANCE_ACCURACY_VALUE','Maximum Tolerance applied to model');
#481=(
NAMED_UNIT(*)
SI_UNIT($,.STERADIAN.)
SOLID_ANGLE_UNIT()
);
#482=(
NAMED_UNIT(*)
PLANE_ANGLE_UNIT()
SI_UNIT($,.RADIAN.)
);
#483=(
LENGTH_UNIT()
NAMED_UNIT(*)
SI_UNIT($,.METRE.)
);
#484=PRODUCT_DEFINITION_SHAPE('','',#485);
#485=PRODUCT_DEFINITION('','',#487,#486);
#486=PRODUCT_DEFINITION_CONTEXT('',#493,'design');
#487=PRODUCT_DEFINITION_FORMATION_WITH_SPECIFIED_SOURCE('','',#489,
 .NOT_KNOWN.);
#488=PRODUCT_RELATED_PRODUCT_CATEGORY('','',(#489));
#489=PRODUCT('Button','Button','Button',(#491));
#490=PRODUCT_CATEGORY('','');
#491=PRODUCT_CONTEXT('',#493,'mechanical');
#492=APPLICATION_PROTOCOL_DEFINITION('international standard',
'ap242_managed_model_based_3d_engineering',2020,#493);
#493=APPLICATION_CONTEXT('managed model based 3d engineering');
ENDSEC;
END-ISO-10303-21;
