ISO-10303-21;
HEADER;
/* Generated by software containing ST-Developer
 * from STEP Tools, Inc. (www.steptools.com) 
 */
/* OPTION: using custom renumber hook */

FILE_DESCRIPTION(
/* description */ ('STEP AP242 Edition 2',
'CAx-IF Rec.Pracs.---Representation and Presentation of Product Manufa
cturing Information (PMI)---4.0---2014-10-13',
'CAx-IF Rec.Pracs.---3D Tessellated Geometry---0.4---2014-09-14','2;1',
'CAx-IF Rec.Pracs.---User Defined Attributes---1.5---2016-08-15'),
/* implementation_level */ '2;1');

FILE_NAME(
/* name */ 'Housing - BottomHousing',
/* time_stamp */ '2026-09-06T15:49:29Z',
/* author */ (''),
/* organization */ (''),
/* preprocessor_version */ 'ST-DEVELOPER v20',
/* originating_system */ 'ONSHAPE BY PTC INC, 1.220',
/* authorisation */ '  ');

FILE_SCHEMA (('AP242_MANAGED_MODEL_BASED_3D_ENGINEERING_MIM_LF { 1 0 10303 442 3 1 4 }'));
ENDSEC;

DATA;
#10=SHAPE_REPRESENTATION_RELATIONSHIP('','',#1143,#11);
#11=ADVANCED_BREP_SHAPE_REPRESENTATION('',(#1141),#1919);
#12=B_SPLINE_CURVE_WITH_KNOTS('',3,(#1895,#1896,#1897,#1898,#1899),
 .UNSPECIFIED.,.F.,.F.,(4,1,4),(0.,0.000869807144540481,0.00173961428908096),
 .UNSPECIFIED.);
#13=B_SPLINE_CURVE_WITH_KNOTS('',3,(#1900,#1901,#1902,#1903,#1904),
 .UNSPECIFIED.,.F.,.F.,(4,1,4),(0.,0.000869807144540484,0.00173961428908097),
 .UNSPECIFIED.);
#14=B_SPLINE_CURVE_WITH_KNOTS('',3,(#1906,#1907,#1908,#1909,#1910),
 .UNSPECIFIED.,.F.,.F.,(4,1,4),(0.,0.00086980714454048,0.00173961428908096),
 .UNSPECIFIED.);
#15=B_SPLINE_CURVE_WITH_KNOTS('',3,(#1912,#1913,#1914,#1915,#1916),
 .UNSPECIFIED.,.F.,.F.,(4,1,4),(0.,0.000869807144540482,0.00173961428908096),
 .UNSPECIFIED.);
#16=TOROIDAL_SURFACE('',#1249,0.07906225,0.001);
#17=TOROIDAL_SURFACE('',#1252,0.07906225,0.001);
#18=CONICAL_SURFACE('',#1245,0.003,0.785398163397448);
#19=CONICAL_SURFACE('',#1248,0.003,0.785398163397448);
#20=CYLINDRICAL_SURFACE('',#1148,0.07836225);
#21=CYLINDRICAL_SURFACE('',#1150,0.07676225);
#22=CYLINDRICAL_SURFACE('',#1155,0.07676225);
#23=CYLINDRICAL_SURFACE('',#1158,0.07836225);
#24=CYLINDRICAL_SURFACE('',#1171,0.08006225);
#25=CYLINDRICAL_SURFACE('',#1175,0.08006225);
#26=CYLINDRICAL_SURFACE('',#1196,0.07836225);
#27=CYLINDRICAL_SURFACE('',#1198,0.07676225);
#28=CYLINDRICAL_SURFACE('',#1200,0.07676225);
#29=CYLINDRICAL_SURFACE('',#1202,0.07836225);
#30=CYLINDRICAL_SURFACE('',#1203,0.003);
#31=CYLINDRICAL_SURFACE('',#1211,0.003);
#32=CYLINDRICAL_SURFACE('',#1215,0.003);
#33=CYLINDRICAL_SURFACE('',#1223,0.003);
#34=CYLINDRICAL_SURFACE('',#1227,0.0015);
#35=CYLINDRICAL_SURFACE('',#1230,0.0015);
#36=CYLINDRICAL_SURFACE('',#1233,0.0015);
#37=CYLINDRICAL_SURFACE('',#1236,0.0015);
#38=CYLINDRICAL_SURFACE('',#1243,0.00175);
#39=CYLINDRICAL_SURFACE('',#1246,0.00175);
#40=CYLINDRICAL_SURFACE('',#1250,0.001);
#41=CYLINDRICAL_SURFACE('',#1251,0.001);
#42=LINE('',#1582,#148);
#43=LINE('',#1586,#149);
#44=LINE('',#1588,#150);
#45=LINE('',#1590,#151);
#46=LINE('',#1592,#152);
#47=LINE('',#1596,#153);
#48=LINE('',#1601,#154);
#49=LINE('',#1602,#155);
#50=LINE('',#1607,#156);
#51=LINE('',#1611,#157);
#52=LINE('',#1613,#158);
#53=LINE('',#1615,#159);
#54=LINE('',#1617,#160);
#55=LINE('',#1622,#161);
#56=LINE('',#1629,#162);
#57=LINE('',#1633,#163);
#58=LINE('',#1635,#164);
#59=LINE('',#1638,#165);
#60=LINE('',#1640,#166);
#61=LINE('',#1642,#167);
#62=LINE('',#1644,#168);
#63=LINE('',#1646,#169);
#64=LINE('',#1648,#170);
#65=LINE('',#1650,#171);
#66=LINE('',#1653,#172);
#67=LINE('',#1655,#173);
#68=LINE('',#1657,#174);
#69=LINE('',#1659,#175);
#70=LINE('',#1661,#176);
#71=LINE('',#1663,#177);
#72=LINE('',#1666,#178);
#73=LINE('',#1667,#179);
#74=LINE('',#1669,#180);
#75=LINE('',#1672,#181);
#76=LINE('',#1673,#182);
#77=LINE('',#1675,#183);
#78=LINE('',#1680,#184);
#79=LINE('',#1682,#185);
#80=LINE('',#1684,#186);
#81=LINE('',#1688,#187);
#82=LINE('',#1689,#188);
#83=LINE('',#1691,#189);
#84=LINE('',#1693,#190);
#85=LINE('',#1695,#191);
#86=LINE('',#1700,#192);
#87=LINE('',#1704,#193);
#88=LINE('',#1706,#194);
#89=LINE('',#1708,#195);
#90=LINE('',#1712,#196);
#91=LINE('',#1716,#197);
#92=LINE('',#1717,#198);
#93=LINE('',#1726,#199);
#94=LINE('',#1730,#200);
#95=LINE('',#1734,#201);
#96=LINE('',#1737,#202);
#97=LINE('',#1741,#203);
#98=LINE('',#1742,#204);
#99=LINE('',#1746,#205);
#100=LINE('',#1748,#206);
#101=LINE('',#1749,#207);
#102=LINE('',#1750,#208);
#103=LINE('',#1754,#209);
#104=LINE('',#1755,#210);
#105=LINE('',#1759,#211);
#106=LINE('',#1761,#212);
#107=LINE('',#1762,#213);
#108=LINE('',#1763,#214);
#109=LINE('',#1765,#215);
#110=LINE('',#1770,#216);
#111=LINE('',#1778,#217);
#112=LINE('',#1780,#218);
#113=LINE('',#1782,#219);
#114=LINE('',#1783,#220);
#115=LINE('',#1785,#221);
#116=LINE('',#1787,#222);
#117=LINE('',#1788,#223);
#118=LINE('',#1789,#224);
#119=LINE('',#1791,#225);
#120=LINE('',#1793,#226);
#121=LINE('',#1795,#227);
#122=LINE('',#1797,#228);
#123=LINE('',#1798,#229);
#124=LINE('',#1800,#230);
#125=LINE('',#1802,#231);
#126=LINE('',#1804,#232);
#127=LINE('',#1805,#233);
#128=LINE('',#1807,#234);
#129=LINE('',#1809,#235);
#130=LINE('',#1811,#236);
#131=LINE('',#1813,#237);
#132=LINE('',#1815,#238);
#133=LINE('',#1819,#239);
#134=LINE('',#1821,#240);
#135=LINE('',#1823,#241);
#136=LINE('',#1828,#242);
#137=LINE('',#1830,#243);
#138=LINE('',#1832,#244);
#139=LINE('',#1834,#245);
#140=LINE('',#1841,#246);
#141=LINE('',#1845,#247);
#142=LINE('',#1847,#248);
#143=LINE('',#1849,#249);
#144=LINE('',#1854,#250);
#145=LINE('',#1856,#251);
#146=LINE('',#1858,#252);
#147=LINE('',#1860,#253);
#148=VECTOR('',#1259,1.);
#149=VECTOR('',#1262,1.);
#150=VECTOR('',#1263,1.);
#151=VECTOR('',#1264,1.);
#152=VECTOR('',#1267,1.);
#153=VECTOR('',#1270,1.);
#154=VECTOR('',#1275,1.);
#155=VECTOR('',#1276,1.);
#156=VECTOR('',#1281,1.);
#157=VECTOR('',#1284,1.);
#158=VECTOR('',#1285,1.);
#159=VECTOR('',#1286,1.);
#160=VECTOR('',#1289,1.);
#161=VECTOR('',#1292,1.);
#162=VECTOR('',#1299,1.);
#163=VECTOR('',#1302,1.);
#164=VECTOR('',#1305,1.);
#165=VECTOR('',#1306,1.);
#166=VECTOR('',#1307,1.);
#167=VECTOR('',#1308,1.);
#168=VECTOR('',#1311,1.);
#169=VECTOR('',#1312,1.);
#170=VECTOR('',#1313,1.);
#171=VECTOR('',#1316,1.);
#172=VECTOR('',#1317,1.);
#173=VECTOR('',#1318,1.);
#174=VECTOR('',#1319,1.);
#175=VECTOR('',#1322,1.);
#176=VECTOR('',#1323,1.);
#177=VECTOR('',#1326,1.);
#178=VECTOR('',#1327,1.);
#179=VECTOR('',#1328,1.);
#180=VECTOR('',#1331,1.);
#181=VECTOR('',#1332,1.);
#182=VECTOR('',#1333,1.);
#183=VECTOR('',#1336,1.);
#184=VECTOR('',#1339,1.);
#185=VECTOR('',#1340,1.);
#186=VECTOR('',#1341,1.);
#187=VECTOR('',#1346,1.);
#188=VECTOR('',#1347,1.);
#189=VECTOR('',#1348,1.);
#190=VECTOR('',#1349,1.);
#191=VECTOR('',#1352,1.);
#192=VECTOR('',#1355,1.);
#193=VECTOR('',#1360,1.);
#194=VECTOR('',#1361,1.);
#195=VECTOR('',#1362,1.);
#196=VECTOR('',#1367,1.);
#197=VECTOR('',#1372,1.);
#198=VECTOR('',#1373,1.);
#199=VECTOR('',#1382,1.);
#200=VECTOR('',#1385,1.);
#201=VECTOR('',#1388,1.);
#202=VECTOR('',#1391,1.);
#203=VECTOR('',#1394,1.);
#204=VECTOR('',#1395,1.);
#205=VECTOR('',#1398,1.);
#206=VECTOR('',#1399,1.);
#207=VECTOR('',#1400,1.);
#208=VECTOR('',#1401,1.);
#209=VECTOR('',#1404,1.);
#210=VECTOR('',#1405,1.);
#211=VECTOR('',#1408,1.);
#212=VECTOR('',#1409,1.);
#213=VECTOR('',#1410,1.);
#214=VECTOR('',#1411,1.);
#215=VECTOR('',#1414,1.);
#216=VECTOR('',#1417,1.);
#217=VECTOR('',#1426,1.);
#218=VECTOR('',#1427,1.);
#219=VECTOR('',#1428,1.);
#220=VECTOR('',#1429,1.);
#221=VECTOR('',#1430,1.);
#222=VECTOR('',#1431,1.);
#223=VECTOR('',#1432,1.);
#224=VECTOR('',#1433,1.);
#225=VECTOR('',#1436,1.);
#226=VECTOR('',#1439,1.);
#227=VECTOR('',#1440,1.);
#228=VECTOR('',#1441,1.);
#229=VECTOR('',#1442,1.);
#230=VECTOR('',#1443,1.);
#231=VECTOR('',#1444,1.);
#232=VECTOR('',#1447,1.);
#233=VECTOR('',#1448,1.);
#234=VECTOR('',#1451,1.);
#235=VECTOR('',#1454,1.);
#236=VECTOR('',#1457,1.);
#237=VECTOR('',#1460,1.);
#238=VECTOR('',#1463,1.);
#239=VECTOR('',#1466,1.);
#240=VECTOR('',#1469,1.);
#241=VECTOR('',#1472,1.);
#242=VECTOR('',#1479,1.);
#243=VECTOR('',#1480,1.);
#244=VECTOR('',#1483,1.);
#245=VECTOR('',#1484,1.);
#246=VECTOR('',#1495,1.);
#247=VECTOR('',#1498,1.);
#248=VECTOR('',#1501,1.);
#249=VECTOR('',#1504,1.);
#250=VECTOR('',#1511,1.);
#251=VECTOR('',#1512,1.);
#252=VECTOR('',#1515,1.);
#253=VECTOR('',#1516,1.);
#254=ORIENTED_EDGE('',*,*,#562,.F.);
#255=ORIENTED_EDGE('',*,*,#563,.T.);
#256=ORIENTED_EDGE('',*,*,#564,.T.);
#257=ORIENTED_EDGE('',*,*,#565,.F.);
#258=ORIENTED_EDGE('',*,*,#566,.T.);
#259=ORIENTED_EDGE('',*,*,#567,.T.);
#260=ORIENTED_EDGE('',*,*,#568,.F.);
#261=ORIENTED_EDGE('',*,*,#569,.T.);
#262=ORIENTED_EDGE('',*,*,#570,.F.);
#263=ORIENTED_EDGE('',*,*,#564,.F.);
#264=ORIENTED_EDGE('',*,*,#571,.F.);
#265=ORIENTED_EDGE('',*,*,#572,.T.);
#266=ORIENTED_EDGE('',*,*,#562,.T.);
#267=ORIENTED_EDGE('',*,*,#573,.T.);
#268=ORIENTED_EDGE('',*,*,#574,.T.);
#269=ORIENTED_EDGE('',*,*,#575,.T.);
#270=ORIENTED_EDGE('',*,*,#576,.F.);
#271=ORIENTED_EDGE('',*,*,#577,.T.);
#272=ORIENTED_EDGE('',*,*,#578,.T.);
#273=ORIENTED_EDGE('',*,*,#579,.F.);
#274=ORIENTED_EDGE('',*,*,#580,.F.);
#275=ORIENTED_EDGE('',*,*,#581,.T.);
#276=ORIENTED_EDGE('',*,*,#582,.F.);
#277=ORIENTED_EDGE('',*,*,#583,.F.);
#278=ORIENTED_EDGE('',*,*,#584,.F.);
#279=ORIENTED_EDGE('',*,*,#585,.T.);
#280=ORIENTED_EDGE('',*,*,#586,.T.);
#281=ORIENTED_EDGE('',*,*,#587,.T.);
#282=ORIENTED_EDGE('',*,*,#588,.T.);
#283=ORIENTED_EDGE('',*,*,#589,.T.);
#284=ORIENTED_EDGE('',*,*,#590,.F.);
#285=ORIENTED_EDGE('',*,*,#591,.F.);
#286=ORIENTED_EDGE('',*,*,#579,.T.);
#287=ORIENTED_EDGE('',*,*,#592,.T.);
#288=ORIENTED_EDGE('',*,*,#593,.F.);
#289=ORIENTED_EDGE('',*,*,#594,.F.);
#290=ORIENTED_EDGE('',*,*,#595,.F.);
#291=ORIENTED_EDGE('',*,*,#596,.T.);
#292=ORIENTED_EDGE('',*,*,#597,.T.);
#293=ORIENTED_EDGE('',*,*,#598,.F.);
#294=ORIENTED_EDGE('',*,*,#599,.F.);
#295=ORIENTED_EDGE('',*,*,#600,.T.);
#296=ORIENTED_EDGE('',*,*,#573,.F.);
#297=ORIENTED_EDGE('',*,*,#567,.F.);
#298=ORIENTED_EDGE('',*,*,#601,.F.);
#299=ORIENTED_EDGE('',*,*,#602,.T.);
#300=ORIENTED_EDGE('',*,*,#598,.T.);
#301=ORIENTED_EDGE('',*,*,#603,.F.);
#302=ORIENTED_EDGE('',*,*,#604,.T.);
#303=ORIENTED_EDGE('',*,*,#605,.T.);
#304=ORIENTED_EDGE('',*,*,#588,.F.);
#305=ORIENTED_EDGE('',*,*,#606,.F.);
#306=ORIENTED_EDGE('',*,*,#607,.F.);
#307=ORIENTED_EDGE('',*,*,#608,.F.);
#308=ORIENTED_EDGE('',*,*,#609,.F.);
#309=ORIENTED_EDGE('',*,*,#610,.F.);
#310=ORIENTED_EDGE('',*,*,#611,.T.);
#311=ORIENTED_EDGE('',*,*,#612,.T.);
#312=ORIENTED_EDGE('',*,*,#613,.F.);
#313=ORIENTED_EDGE('',*,*,#583,.T.);
#314=ORIENTED_EDGE('',*,*,#614,.T.);
#315=ORIENTED_EDGE('',*,*,#615,.F.);
#316=ORIENTED_EDGE('',*,*,#616,.F.);
#317=ORIENTED_EDGE('',*,*,#586,.F.);
#318=ORIENTED_EDGE('',*,*,#617,.T.);
#319=ORIENTED_EDGE('',*,*,#618,.T.);
#320=ORIENTED_EDGE('',*,*,#619,.F.);
#321=ORIENTED_EDGE('',*,*,#620,.T.);
#322=ORIENTED_EDGE('',*,*,#619,.T.);
#323=ORIENTED_EDGE('',*,*,#621,.T.);
#324=ORIENTED_EDGE('',*,*,#622,.F.);
#325=ORIENTED_EDGE('',*,*,#623,.F.);
#326=ORIENTED_EDGE('',*,*,#622,.T.);
#327=ORIENTED_EDGE('',*,*,#624,.T.);
#328=ORIENTED_EDGE('',*,*,#625,.F.);
#329=ORIENTED_EDGE('',*,*,#626,.F.);
#330=ORIENTED_EDGE('',*,*,#625,.T.);
#331=ORIENTED_EDGE('',*,*,#627,.T.);
#332=ORIENTED_EDGE('',*,*,#617,.F.);
#333=ORIENTED_EDGE('',*,*,#628,.T.);
#334=ORIENTED_EDGE('',*,*,#629,.T.);
#335=ORIENTED_EDGE('',*,*,#630,.T.);
#336=ORIENTED_EDGE('',*,*,#631,.T.);
#337=ORIENTED_EDGE('',*,*,#632,.F.);
#338=ORIENTED_EDGE('',*,*,#633,.F.);
#339=ORIENTED_EDGE('',*,*,#634,.F.);
#340=ORIENTED_EDGE('',*,*,#635,.T.);
#341=ORIENTED_EDGE('',*,*,#636,.T.);
#342=ORIENTED_EDGE('',*,*,#637,.F.);
#343=ORIENTED_EDGE('',*,*,#593,.T.);
#344=ORIENTED_EDGE('',*,*,#638,.F.);
#345=ORIENTED_EDGE('',*,*,#639,.F.);
#346=ORIENTED_EDGE('',*,*,#640,.T.);
#347=ORIENTED_EDGE('',*,*,#590,.T.);
#348=ORIENTED_EDGE('',*,*,#641,.F.);
#349=ORIENTED_EDGE('',*,*,#642,.T.);
#350=ORIENTED_EDGE('',*,*,#643,.T.);
#351=ORIENTED_EDGE('',*,*,#644,.T.);
#352=ORIENTED_EDGE('',*,*,#645,.T.);
#353=ORIENTED_EDGE('',*,*,#571,.T.);
#354=ORIENTED_EDGE('',*,*,#600,.F.);
#355=ORIENTED_EDGE('',*,*,#646,.F.);
#356=ORIENTED_EDGE('',*,*,#647,.F.);
#357=ORIENTED_EDGE('',*,*,#648,.T.);
#358=ORIENTED_EDGE('',*,*,#596,.F.);
#359=ORIENTED_EDGE('',*,*,#649,.F.);
#360=ORIENTED_EDGE('',*,*,#650,.T.);
#361=ORIENTED_EDGE('',*,*,#651,.T.);
#362=ORIENTED_EDGE('',*,*,#652,.F.);
#363=ORIENTED_EDGE('',*,*,#581,.F.);
#364=ORIENTED_EDGE('',*,*,#653,.F.);
#365=ORIENTED_EDGE('',*,*,#584,.T.);
#366=ORIENTED_EDGE('',*,*,#654,.T.);
#367=ORIENTED_EDGE('',*,*,#569,.F.);
#368=ORIENTED_EDGE('',*,*,#620,.F.);
#369=ORIENTED_EDGE('',*,*,#623,.T.);
#370=ORIENTED_EDGE('',*,*,#626,.T.);
#371=ORIENTED_EDGE('',*,*,#628,.F.);
#372=ORIENTED_EDGE('',*,*,#655,.T.);
#373=ORIENTED_EDGE('',*,*,#656,.T.);
#374=ORIENTED_EDGE('',*,*,#657,.T.);
#375=ORIENTED_EDGE('',*,*,#658,.T.);
#376=ORIENTED_EDGE('',*,*,#659,.T.);
#377=ORIENTED_EDGE('',*,*,#660,.T.);
#378=ORIENTED_EDGE('',*,*,#611,.F.);
#379=ORIENTED_EDGE('',*,*,#661,.F.);
#380=ORIENTED_EDGE('',*,*,#662,.F.);
#381=ORIENTED_EDGE('',*,*,#663,.T.);
#382=ORIENTED_EDGE('',*,*,#604,.F.);
#383=ORIENTED_EDGE('',*,*,#664,.F.);
#384=ORIENTED_EDGE('',*,*,#665,.F.);
#385=ORIENTED_EDGE('',*,*,#666,.T.);
#386=ORIENTED_EDGE('',*,*,#577,.F.);
#387=ORIENTED_EDGE('',*,*,#667,.T.);
#388=ORIENTED_EDGE('',*,*,#634,.T.);
#389=ORIENTED_EDGE('',*,*,#668,.F.);
#390=ORIENTED_EDGE('',*,*,#633,.T.);
#391=ORIENTED_EDGE('',*,*,#669,.T.);
#392=ORIENTED_EDGE('',*,*,#612,.F.);
#393=ORIENTED_EDGE('',*,*,#668,.T.);
#394=ORIENTED_EDGE('',*,*,#570,.T.);
#395=ORIENTED_EDGE('',*,*,#654,.F.);
#396=ORIENTED_EDGE('',*,*,#587,.F.);
#397=ORIENTED_EDGE('',*,*,#616,.T.);
#398=ORIENTED_EDGE('',*,*,#670,.F.);
#399=ORIENTED_EDGE('',*,*,#671,.T.);
#400=ORIENTED_EDGE('',*,*,#672,.T.);
#401=ORIENTED_EDGE('',*,*,#601,.T.);
#402=ORIENTED_EDGE('',*,*,#673,.F.);
#403=ORIENTED_EDGE('',*,*,#674,.T.);
#404=ORIENTED_EDGE('',*,*,#675,.T.);
#405=ORIENTED_EDGE('',*,*,#565,.T.);
#406=ORIENTED_EDGE('',*,*,#676,.F.);
#407=ORIENTED_EDGE('',*,*,#631,.F.);
#408=ORIENTED_EDGE('',*,*,#677,.F.);
#409=ORIENTED_EDGE('',*,*,#608,.T.);
#410=ORIENTED_EDGE('',*,*,#678,.F.);
#411=ORIENTED_EDGE('',*,*,#609,.T.);
#412=ORIENTED_EDGE('',*,*,#677,.T.);
#413=ORIENTED_EDGE('',*,*,#644,.F.);
#414=ORIENTED_EDGE('',*,*,#637,.T.);
#415=ORIENTED_EDGE('',*,*,#679,.T.);
#416=ORIENTED_EDGE('',*,*,#574,.F.);
#417=ORIENTED_EDGE('',*,*,#594,.T.);
#418=ORIENTED_EDGE('',*,*,#652,.T.);
#419=ORIENTED_EDGE('',*,*,#680,.T.);
#420=ORIENTED_EDGE('',*,*,#614,.F.);
#421=ORIENTED_EDGE('',*,*,#582,.T.);
#422=ORIENTED_EDGE('',*,*,#681,.F.);
#423=ORIENTED_EDGE('',*,*,#635,.F.);
#424=ORIENTED_EDGE('',*,*,#667,.F.);
#425=ORIENTED_EDGE('',*,*,#576,.T.);
#426=ORIENTED_EDGE('',*,*,#639,.T.);
#427=ORIENTED_EDGE('',*,*,#682,.F.);
#428=ORIENTED_EDGE('',*,*,#683,.F.);
#429=ORIENTED_EDGE('',*,*,#684,.T.);
#430=ORIENTED_EDGE('',*,*,#592,.F.);
#431=ORIENTED_EDGE('',*,*,#578,.F.);
#432=ORIENTED_EDGE('',*,*,#666,.F.);
#433=ORIENTED_EDGE('',*,*,#685,.F.);
#434=ORIENTED_EDGE('',*,*,#682,.T.);
#435=ORIENTED_EDGE('',*,*,#638,.T.);
#436=ORIENTED_EDGE('',*,*,#606,.T.);
#437=ORIENTED_EDGE('',*,*,#591,.T.);
#438=ORIENTED_EDGE('',*,*,#640,.F.);
#439=ORIENTED_EDGE('',*,*,#684,.F.);
#440=ORIENTED_EDGE('',*,*,#686,.T.);
#441=ORIENTED_EDGE('',*,*,#664,.T.);
#442=ORIENTED_EDGE('',*,*,#687,.F.);
#443=ORIENTED_EDGE('',*,*,#683,.T.);
#444=ORIENTED_EDGE('',*,*,#685,.T.);
#445=ORIENTED_EDGE('',*,*,#665,.T.);
#446=ORIENTED_EDGE('',*,*,#686,.F.);
#447=ORIENTED_EDGE('',*,*,#597,.F.);
#448=ORIENTED_EDGE('',*,*,#648,.F.);
#449=ORIENTED_EDGE('',*,*,#688,.F.);
#450=ORIENTED_EDGE('',*,*,#689,.T.);
#451=ORIENTED_EDGE('',*,*,#673,.T.);
#452=ORIENTED_EDGE('',*,*,#603,.T.);
#453=ORIENTED_EDGE('',*,*,#646,.T.);
#454=ORIENTED_EDGE('',*,*,#599,.T.);
#455=ORIENTED_EDGE('',*,*,#566,.F.);
#456=ORIENTED_EDGE('',*,*,#675,.F.);
#457=ORIENTED_EDGE('',*,*,#690,.F.);
#458=ORIENTED_EDGE('',*,*,#691,.T.);
#459=ORIENTED_EDGE('',*,*,#647,.T.);
#460=ORIENTED_EDGE('',*,*,#691,.F.);
#461=ORIENTED_EDGE('',*,*,#692,.F.);
#462=ORIENTED_EDGE('',*,*,#688,.T.);
#463=ORIENTED_EDGE('',*,*,#693,.F.);
#464=ORIENTED_EDGE('',*,*,#689,.F.);
#465=ORIENTED_EDGE('',*,*,#692,.T.);
#466=ORIENTED_EDGE('',*,*,#690,.T.);
#467=ORIENTED_EDGE('',*,*,#674,.F.);
#468=ORIENTED_EDGE('',*,*,#642,.F.);
#469=ORIENTED_EDGE('',*,*,#694,.F.);
#470=ORIENTED_EDGE('',*,*,#695,.T.);
#471=ORIENTED_EDGE('',*,*,#696,.T.);
#472=ORIENTED_EDGE('',*,*,#589,.F.);
#473=ORIENTED_EDGE('',*,*,#605,.F.);
#474=ORIENTED_EDGE('',*,*,#663,.F.);
#475=ORIENTED_EDGE('',*,*,#697,.F.);
#476=ORIENTED_EDGE('',*,*,#694,.T.);
#477=ORIENTED_EDGE('',*,*,#641,.T.);
#478=ORIENTED_EDGE('',*,*,#610,.T.);
#479=ORIENTED_EDGE('',*,*,#678,.T.);
#480=ORIENTED_EDGE('',*,*,#643,.F.);
#481=ORIENTED_EDGE('',*,*,#696,.F.);
#482=ORIENTED_EDGE('',*,*,#698,.T.);
#483=ORIENTED_EDGE('',*,*,#661,.T.);
#484=ORIENTED_EDGE('',*,*,#699,.F.);
#485=ORIENTED_EDGE('',*,*,#695,.F.);
#486=ORIENTED_EDGE('',*,*,#697,.T.);
#487=ORIENTED_EDGE('',*,*,#662,.T.);
#488=ORIENTED_EDGE('',*,*,#698,.F.);
#489=ORIENTED_EDGE('',*,*,#680,.F.);
#490=ORIENTED_EDGE('',*,*,#651,.F.);
#491=ORIENTED_EDGE('',*,*,#700,.F.);
#492=ORIENTED_EDGE('',*,*,#701,.T.);
#493=ORIENTED_EDGE('',*,*,#670,.T.);
#494=ORIENTED_EDGE('',*,*,#615,.T.);
#495=ORIENTED_EDGE('',*,*,#649,.T.);
#496=ORIENTED_EDGE('',*,*,#595,.T.);
#497=ORIENTED_EDGE('',*,*,#602,.F.);
#498=ORIENTED_EDGE('',*,*,#672,.F.);
#499=ORIENTED_EDGE('',*,*,#702,.F.);
#500=ORIENTED_EDGE('',*,*,#703,.T.);
#501=ORIENTED_EDGE('',*,*,#650,.F.);
#502=ORIENTED_EDGE('',*,*,#703,.F.);
#503=ORIENTED_EDGE('',*,*,#704,.T.);
#504=ORIENTED_EDGE('',*,*,#700,.T.);
#505=ORIENTED_EDGE('',*,*,#705,.F.);
#506=ORIENTED_EDGE('',*,*,#671,.F.);
#507=ORIENTED_EDGE('',*,*,#701,.F.);
#508=ORIENTED_EDGE('',*,*,#704,.F.);
#509=ORIENTED_EDGE('',*,*,#702,.T.);
#510=ORIENTED_EDGE('',*,*,#706,.F.);
#511=ORIENTED_EDGE('',*,*,#705,.T.);
#512=ORIENTED_EDGE('',*,*,#706,.T.);
#513=ORIENTED_EDGE('',*,*,#707,.F.);
#514=ORIENTED_EDGE('',*,*,#699,.T.);
#515=ORIENTED_EDGE('',*,*,#707,.T.);
#516=ORIENTED_EDGE('',*,*,#708,.F.);
#517=ORIENTED_EDGE('',*,*,#693,.T.);
#518=ORIENTED_EDGE('',*,*,#708,.T.);
#519=ORIENTED_EDGE('',*,*,#709,.F.);
#520=ORIENTED_EDGE('',*,*,#687,.T.);
#521=ORIENTED_EDGE('',*,*,#709,.T.);
#522=ORIENTED_EDGE('',*,*,#653,.T.);
#523=ORIENTED_EDGE('',*,*,#580,.T.);
#524=ORIENTED_EDGE('',*,*,#613,.T.);
#525=ORIENTED_EDGE('',*,*,#585,.F.);
#526=ORIENTED_EDGE('',*,*,#681,.T.);
#527=ORIENTED_EDGE('',*,*,#575,.F.);
#528=ORIENTED_EDGE('',*,*,#679,.F.);
#529=ORIENTED_EDGE('',*,*,#636,.F.);
#530=ORIENTED_EDGE('',*,*,#632,.T.);
#531=ORIENTED_EDGE('',*,*,#676,.T.);
#532=ORIENTED_EDGE('',*,*,#607,.T.);
#533=ORIENTED_EDGE('',*,*,#669,.F.);
#534=ORIENTED_EDGE('',*,*,#568,.T.);
#535=ORIENTED_EDGE('',*,*,#563,.F.);
#536=ORIENTED_EDGE('',*,*,#572,.F.);
#537=ORIENTED_EDGE('',*,*,#645,.F.);
#538=ORIENTED_EDGE('',*,*,#630,.F.);
#539=ORIENTED_EDGE('',*,*,#710,.F.);
#540=ORIENTED_EDGE('',*,*,#710,.T.);
#541=ORIENTED_EDGE('',*,*,#660,.F.);
#542=ORIENTED_EDGE('',*,*,#629,.F.);
#543=ORIENTED_EDGE('',*,*,#711,.F.);
#544=ORIENTED_EDGE('',*,*,#711,.T.);
#545=ORIENTED_EDGE('',*,*,#659,.F.);
#546=ORIENTED_EDGE('',*,*,#712,.F.);
#547=ORIENTED_EDGE('',*,*,#658,.F.);
#548=ORIENTED_EDGE('',*,*,#713,.F.);
#549=ORIENTED_EDGE('',*,*,#618,.F.);
#550=ORIENTED_EDGE('',*,*,#713,.T.);
#551=ORIENTED_EDGE('',*,*,#657,.F.);
#552=ORIENTED_EDGE('',*,*,#714,.F.);
#553=ORIENTED_EDGE('',*,*,#621,.F.);
#554=ORIENTED_EDGE('',*,*,#712,.T.);
#555=ORIENTED_EDGE('',*,*,#627,.F.);
#556=ORIENTED_EDGE('',*,*,#715,.F.);
#557=ORIENTED_EDGE('',*,*,#655,.F.);
#558=ORIENTED_EDGE('',*,*,#714,.T.);
#559=ORIENTED_EDGE('',*,*,#656,.F.);
#560=ORIENTED_EDGE('',*,*,#715,.T.);
#561=ORIENTED_EDGE('',*,*,#624,.F.);
#562=EDGE_CURVE('',#716,#717,#822,.T.);
#563=EDGE_CURVE('',#716,#718,#42,.T.);
#564=EDGE_CURVE('',#718,#719,#823,.T.);
#565=EDGE_CURVE('',#720,#719,#43,.T.);
#566=EDGE_CURVE('',#720,#721,#44,.T.);
#567=EDGE_CURVE('',#721,#717,#45,.T.);
#568=EDGE_CURVE('',#722,#718,#46,.T.);
#569=EDGE_CURVE('',#722,#723,#824,.T.);
#570=EDGE_CURVE('',#719,#723,#47,.T.);
#571=EDGE_CURVE('',#724,#725,#825,.T.);
#572=EDGE_CURVE('',#724,#716,#48,.T.);
#573=EDGE_CURVE('',#717,#725,#49,.T.);
#574=EDGE_CURVE('',#726,#727,#826,.T.);
#575=EDGE_CURVE('',#727,#728,#50,.T.);
#576=EDGE_CURVE('',#729,#728,#827,.T.);
#577=EDGE_CURVE('',#729,#730,#51,.T.);
#578=EDGE_CURVE('',#730,#731,#52,.T.);
#579=EDGE_CURVE('',#726,#731,#53,.T.);
#580=EDGE_CURVE('',#732,#733,#54,.T.);
#581=EDGE_CURVE('',#732,#734,#828,.T.);
#582=EDGE_CURVE('',#735,#734,#55,.T.);
#583=EDGE_CURVE('',#733,#735,#829,.T.);
#584=EDGE_CURVE('',#736,#737,#830,.T.);
#585=EDGE_CURVE('',#736,#738,#56,.T.);
#586=EDGE_CURVE('',#738,#739,#831,.T.);
#587=EDGE_CURVE('',#739,#737,#57,.T.);
#588=EDGE_CURVE('',#740,#741,#58,.T.);
#589=EDGE_CURVE('',#741,#742,#59,.T.);
#590=EDGE_CURVE('',#743,#742,#60,.T.);
#591=EDGE_CURVE('',#740,#743,#61,.T.);
#592=EDGE_CURVE('',#731,#744,#62,.T.);
#593=EDGE_CURVE('',#745,#744,#63,.T.);
#594=EDGE_CURVE('',#726,#745,#64,.T.);
#595=EDGE_CURVE('',#746,#747,#65,.T.);
#596=EDGE_CURVE('',#746,#748,#66,.T.);
#597=EDGE_CURVE('',#748,#749,#67,.T.);
#598=EDGE_CURVE('',#747,#749,#68,.T.);
#599=EDGE_CURVE('',#750,#721,#69,.T.);
#600=EDGE_CURVE('',#750,#725,#70,.T.);
#601=EDGE_CURVE('',#751,#752,#71,.T.);
#602=EDGE_CURVE('',#751,#747,#72,.T.);
#603=EDGE_CURVE('',#752,#749,#73,.T.);
#604=EDGE_CURVE('',#753,#754,#74,.T.);
#605=EDGE_CURVE('',#754,#741,#75,.T.);
#606=EDGE_CURVE('',#753,#740,#76,.T.);
#607=EDGE_CURVE('',#755,#756,#77,.T.);
#608=EDGE_CURVE('',#757,#755,#832,.T.);
#609=EDGE_CURVE('',#758,#757,#78,.T.);
#610=EDGE_CURVE('',#759,#758,#79,.T.);
#611=EDGE_CURVE('',#759,#760,#80,.T.);
#612=EDGE_CURVE('',#760,#756,#833,.T.);
#613=EDGE_CURVE('',#733,#738,#81,.T.);
#614=EDGE_CURVE('',#735,#761,#82,.T.);
#615=EDGE_CURVE('',#762,#761,#83,.T.);
#616=EDGE_CURVE('',#739,#762,#84,.T.);
#617=EDGE_CURVE('',#763,#764,#85,.T.);
#618=EDGE_CURVE('',#764,#765,#834,.T.);
#619=EDGE_CURVE('',#766,#765,#86,.T.);
#620=EDGE_CURVE('',#766,#763,#835,.T.);
#621=EDGE_CURVE('',#765,#767,#87,.T.);
#622=EDGE_CURVE('',#768,#767,#88,.T.);
#623=EDGE_CURVE('',#766,#768,#89,.T.);
#624=EDGE_CURVE('',#767,#769,#836,.T.);
#625=EDGE_CURVE('',#770,#769,#90,.T.);
#626=EDGE_CURVE('',#768,#770,#837,.T.);
#627=EDGE_CURVE('',#769,#764,#91,.F.);
#628=EDGE_CURVE('',#763,#770,#92,.T.);
#629=EDGE_CURVE('',#771,#771,#838,.F.);
#630=EDGE_CURVE('',#772,#772,#839,.F.);
#631=EDGE_CURVE('',#773,#774,#840,.T.);
#632=EDGE_CURVE('',#775,#774,#93,.T.);
#633=EDGE_CURVE('',#776,#775,#841,.T.);
#634=EDGE_CURVE('',#777,#776,#94,.T.);
#635=EDGE_CURVE('',#777,#778,#842,.T.);
#636=EDGE_CURVE('',#778,#779,#95,.T.);
#637=EDGE_CURVE('',#745,#779,#843,.T.);
#638=EDGE_CURVE('',#780,#744,#96,.T.);
#639=EDGE_CURVE('',#781,#780,#844,.T.);
#640=EDGE_CURVE('',#781,#743,#97,.T.);
#641=EDGE_CURVE('',#782,#742,#98,.T.);
#642=EDGE_CURVE('',#782,#783,#845,.T.);
#643=EDGE_CURVE('',#783,#784,#99,.T.);
#644=EDGE_CURVE('',#784,#773,#100,.T.);
#645=EDGE_CURVE('',#722,#724,#101,.T.);
#646=EDGE_CURVE('',#785,#750,#102,.T.);
#647=EDGE_CURVE('',#786,#785,#846,.T.);
#648=EDGE_CURVE('',#786,#748,#103,.T.);
#649=EDGE_CURVE('',#787,#746,#104,.T.);
#650=EDGE_CURVE('',#787,#788,#847,.T.);
#651=EDGE_CURVE('',#788,#789,#105,.T.);
#652=EDGE_CURVE('',#734,#789,#106,.T.);
#653=EDGE_CURVE('',#736,#732,#107,.T.);
#654=EDGE_CURVE('',#737,#723,#108,.T.);
#655=EDGE_CURVE('',#790,#791,#109,.T.);
#656=EDGE_CURVE('',#791,#792,#848,.F.);
#657=EDGE_CURVE('',#792,#793,#110,.F.);
#658=EDGE_CURVE('',#793,#790,#849,.F.);
#659=EDGE_CURVE('',#794,#794,#850,.T.);
#660=EDGE_CURVE('',#795,#795,#851,.T.);
#661=EDGE_CURVE('',#796,#759,#111,.T.);
#662=EDGE_CURVE('',#797,#796,#112,.T.);
#663=EDGE_CURVE('',#797,#754,#113,.T.);
#664=EDGE_CURVE('',#798,#753,#114,.T.);
#665=EDGE_CURVE('',#799,#798,#115,.T.);
#666=EDGE_CURVE('',#799,#730,#116,.T.);
#667=EDGE_CURVE('',#729,#777,#117,.T.);
#668=EDGE_CURVE('',#760,#776,#118,.T.);
#669=EDGE_CURVE('',#775,#756,#119,.T.);
#670=EDGE_CURVE('',#800,#762,#120,.T.);
#671=EDGE_CURVE('',#800,#801,#121,.T.);
#672=EDGE_CURVE('',#801,#751,#122,.T.);
#673=EDGE_CURVE('',#802,#752,#123,.T.);
#674=EDGE_CURVE('',#802,#803,#124,.T.);
#675=EDGE_CURVE('',#803,#720,#125,.T.);
#676=EDGE_CURVE('',#774,#755,#126,.T.);
#677=EDGE_CURVE('',#757,#773,#127,.T.);
#678=EDGE_CURVE('',#758,#784,#128,.T.);
#679=EDGE_CURVE('',#779,#727,#129,.T.);
#680=EDGE_CURVE('',#789,#761,#130,.T.);
#681=EDGE_CURVE('',#778,#728,#131,.T.);
#682=EDGE_CURVE('',#804,#780,#132,.T.);
#683=EDGE_CURVE('',#805,#804,#852,.T.);
#684=EDGE_CURVE('',#805,#781,#133,.T.);
#685=EDGE_CURVE('',#804,#799,#134,.T.);
#686=EDGE_CURVE('',#805,#798,#135,.T.);
#687=EDGE_CURVE('',#806,#806,#853,.T.);
#688=EDGE_CURVE('',#807,#786,#136,.T.);
#689=EDGE_CURVE('',#807,#802,#137,.T.);
#690=EDGE_CURVE('',#808,#803,#138,.T.);
#691=EDGE_CURVE('',#808,#785,#139,.T.);
#692=EDGE_CURVE('',#807,#808,#854,.T.);
#693=EDGE_CURVE('',#809,#809,#855,.T.);
#694=EDGE_CURVE('',#810,#782,#140,.T.);
#695=EDGE_CURVE('',#810,#811,#856,.T.);
#696=EDGE_CURVE('',#811,#783,#141,.T.);
#697=EDGE_CURVE('',#810,#797,#142,.T.);
#698=EDGE_CURVE('',#811,#796,#143,.T.);
#699=EDGE_CURVE('',#812,#812,#857,.T.);
#700=EDGE_CURVE('',#813,#788,#144,.T.);
#701=EDGE_CURVE('',#813,#800,#145,.T.);
#702=EDGE_CURVE('',#814,#801,#146,.T.);
#703=EDGE_CURVE('',#814,#787,#147,.T.);
#704=EDGE_CURVE('',#814,#813,#858,.T.);
#705=EDGE_CURVE('',#815,#815,#859,.T.);
#706=EDGE_CURVE('',#816,#816,#860,.T.);
#707=EDGE_CURVE('',#817,#817,#861,.T.);
#708=EDGE_CURVE('',#818,#818,#862,.T.);
#709=EDGE_CURVE('',#819,#819,#863,.T.);
#710=EDGE_CURVE('',#820,#820,#864,.T.);
#711=EDGE_CURVE('',#821,#821,#865,.T.);
#712=EDGE_CURVE('',#790,#764,#12,.F.);
#713=EDGE_CURVE('',#765,#793,#13,.T.);
#714=EDGE_CURVE('',#767,#792,#14,.T.);
#715=EDGE_CURVE('',#791,#769,#15,.F.);
#716=VERTEX_POINT('',#1580);
#717=VERTEX_POINT('',#1581);
#718=VERTEX_POINT('',#1583);
#719=VERTEX_POINT('',#1585);
#720=VERTEX_POINT('',#1587);
#721=VERTEX_POINT('',#1589);
#722=VERTEX_POINT('',#1593);
#723=VERTEX_POINT('',#1595);
#724=VERTEX_POINT('',#1599);
#725=VERTEX_POINT('',#1600);
#726=VERTEX_POINT('',#1605);
#727=VERTEX_POINT('',#1606);
#728=VERTEX_POINT('',#1608);
#729=VERTEX_POINT('',#1610);
#730=VERTEX_POINT('',#1612);
#731=VERTEX_POINT('',#1614);
#732=VERTEX_POINT('',#1618);
#733=VERTEX_POINT('',#1619);
#734=VERTEX_POINT('',#1621);
#735=VERTEX_POINT('',#1623);
#736=VERTEX_POINT('',#1627);
#737=VERTEX_POINT('',#1628);
#738=VERTEX_POINT('',#1630);
#739=VERTEX_POINT('',#1632);
#740=VERTEX_POINT('',#1636);
#741=VERTEX_POINT('',#1637);
#742=VERTEX_POINT('',#1639);
#743=VERTEX_POINT('',#1641);
#744=VERTEX_POINT('',#1645);
#745=VERTEX_POINT('',#1647);
#746=VERTEX_POINT('',#1651);
#747=VERTEX_POINT('',#1652);
#748=VERTEX_POINT('',#1654);
#749=VERTEX_POINT('',#1656);
#750=VERTEX_POINT('',#1660);
#751=VERTEX_POINT('',#1664);
#752=VERTEX_POINT('',#1665);
#753=VERTEX_POINT('',#1670);
#754=VERTEX_POINT('',#1671);
#755=VERTEX_POINT('',#1676);
#756=VERTEX_POINT('',#1677);
#757=VERTEX_POINT('',#1679);
#758=VERTEX_POINT('',#1681);
#759=VERTEX_POINT('',#1683);
#760=VERTEX_POINT('',#1685);
#761=VERTEX_POINT('',#1690);
#762=VERTEX_POINT('',#1692);
#763=VERTEX_POINT('',#1696);
#764=VERTEX_POINT('',#1697);
#765=VERTEX_POINT('',#1699);
#766=VERTEX_POINT('',#1701);
#767=VERTEX_POINT('',#1705);
#768=VERTEX_POINT('',#1707);
#769=VERTEX_POINT('',#1711);
#770=VERTEX_POINT('',#1713);
#771=VERTEX_POINT('',#1720);
#772=VERTEX_POINT('',#1722);
#773=VERTEX_POINT('',#1724);
#774=VERTEX_POINT('',#1725);
#775=VERTEX_POINT('',#1727);
#776=VERTEX_POINT('',#1729);
#777=VERTEX_POINT('',#1731);
#778=VERTEX_POINT('',#1733);
#779=VERTEX_POINT('',#1735);
#780=VERTEX_POINT('',#1738);
#781=VERTEX_POINT('',#1740);
#782=VERTEX_POINT('',#1743);
#783=VERTEX_POINT('',#1745);
#784=VERTEX_POINT('',#1747);
#785=VERTEX_POINT('',#1751);
#786=VERTEX_POINT('',#1753);
#787=VERTEX_POINT('',#1756);
#788=VERTEX_POINT('',#1758);
#789=VERTEX_POINT('',#1760);
#790=VERTEX_POINT('',#1766);
#791=VERTEX_POINT('',#1767);
#792=VERTEX_POINT('',#1769);
#793=VERTEX_POINT('',#1771);
#794=VERTEX_POINT('',#1774);
#795=VERTEX_POINT('',#1776);
#796=VERTEX_POINT('',#1779);
#797=VERTEX_POINT('',#1781);
#798=VERTEX_POINT('',#1784);
#799=VERTEX_POINT('',#1786);
#800=VERTEX_POINT('',#1794);
#801=VERTEX_POINT('',#1796);
#802=VERTEX_POINT('',#1799);
#803=VERTEX_POINT('',#1801);
#804=VERTEX_POINT('',#1816);
#805=VERTEX_POINT('',#1818);
#806=VERTEX_POINT('',#1826);
#807=VERTEX_POINT('',#1829);
#808=VERTEX_POINT('',#1833);
#809=VERTEX_POINT('',#1839);
#810=VERTEX_POINT('',#1842);
#811=VERTEX_POINT('',#1844);
#812=VERTEX_POINT('',#1852);
#813=VERTEX_POINT('',#1855);
#814=VERTEX_POINT('',#1859);
#815=VERTEX_POINT('',#1865);
#816=VERTEX_POINT('',#1868);
#817=VERTEX_POINT('',#1872);
#818=VERTEX_POINT('',#1876);
#819=VERTEX_POINT('',#1880);
#820=VERTEX_POINT('',#1888);
#821=VERTEX_POINT('',#1892);
#822=CIRCLE('',#1146,0.07676225);
#823=CIRCLE('',#1147,0.07836225);
#824=CIRCLE('',#1149,0.07836225);
#825=CIRCLE('',#1151,0.07676225);
#826=CIRCLE('',#1153,0.07676225);
#827=CIRCLE('',#1154,0.07836225);
#828=CIRCLE('',#1156,0.07676225);
#829=CIRCLE('',#1157,0.07676225);
#830=CIRCLE('',#1159,0.07836225);
#831=CIRCLE('',#1160,0.07836225);
#832=CIRCLE('',#1168,0.07676225);
#833=CIRCLE('',#1169,0.07836225);
#834=CIRCLE('',#1172,0.08006225);
#835=CIRCLE('',#1173,0.08006225);
#836=CIRCLE('',#1176,0.08006225);
#837=CIRCLE('',#1177,0.08006225);
#838=CIRCLE('',#1180,0.00175);
#839=CIRCLE('',#1181,0.00175);
#840=CIRCLE('',#1182,0.07676225);
#841=CIRCLE('',#1183,0.07836225);
#842=CIRCLE('',#1184,0.07836225);
#843=CIRCLE('',#1185,0.07676225);
#844=CIRCLE('',#1186,0.003);
#845=CIRCLE('',#1187,0.003);
#846=CIRCLE('',#1188,0.003);
#847=CIRCLE('',#1189,0.003);
#848=CIRCLE('',#1191,0.07906225);
#849=CIRCLE('',#1192,0.07906225);
#850=CIRCLE('',#1193,0.003);
#851=CIRCLE('',#1194,0.003);
#852=CIRCLE('',#1204,0.003);
#853=CIRCLE('',#1208,0.0015);
#854=CIRCLE('',#1212,0.003);
#855=CIRCLE('',#1214,0.0015);
#856=CIRCLE('',#1216,0.003);
#857=CIRCLE('',#1220,0.0015);
#858=CIRCLE('',#1224,0.003);
#859=CIRCLE('',#1226,0.0015);
#860=CIRCLE('',#1228,0.0015);
#861=CIRCLE('',#1231,0.0015);
#862=CIRCLE('',#1234,0.0015);
#863=CIRCLE('',#1237,0.0015);
#864=CIRCLE('',#1244,0.00175);
#865=CIRCLE('',#1247,0.00175);
#866=EDGE_LOOP('',(#254,#255,#256,#257,#258,#259));
#867=EDGE_LOOP('',(#260,#261,#262,#263));
#868=EDGE_LOOP('',(#264,#265,#266,#267));
#869=EDGE_LOOP('',(#268,#269,#270,#271,#272,#273));
#870=EDGE_LOOP('',(#274,#275,#276,#277));
#871=EDGE_LOOP('',(#278,#279,#280,#281));
#872=EDGE_LOOP('',(#282,#283,#284,#285));
#873=EDGE_LOOP('',(#286,#287,#288,#289));
#874=EDGE_LOOP('',(#290,#291,#292,#293));
#875=EDGE_LOOP('',(#294,#295,#296,#297));
#876=EDGE_LOOP('',(#298,#299,#300,#301));
#877=EDGE_LOOP('',(#302,#303,#304,#305));
#878=EDGE_LOOP('',(#306,#307,#308,#309,#310,#311));
#879=EDGE_LOOP('',(#312,#313,#314,#315,#316,#317));
#880=EDGE_LOOP('',(#318,#319,#320,#321));
#881=EDGE_LOOP('',(#322,#323,#324,#325));
#882=EDGE_LOOP('',(#326,#327,#328,#329));
#883=EDGE_LOOP('',(#330,#331,#332,#333));
#884=EDGE_LOOP('',(#334));
#885=EDGE_LOOP('',(#335));
#886=EDGE_LOOP('',(#336,#337,#338,#339,#340,#341,#342,#343,#344,#345,#346,
#347,#348,#349,#350,#351));
#887=EDGE_LOOP('',(#352,#353,#354,#355,#356,#357,#358,#359,#360,#361,#362,
#363,#364,#365,#366,#367));
#888=EDGE_LOOP('',(#368,#369,#370,#371));
#889=EDGE_LOOP('',(#372,#373,#374,#375));
#890=EDGE_LOOP('',(#376));
#891=EDGE_LOOP('',(#377));
#892=EDGE_LOOP('',(#378,#379,#380,#381,#382,#383,#384,#385,#386,#387,#388,
#389));
#893=EDGE_LOOP('',(#390,#391,#392,#393));
#894=EDGE_LOOP('',(#394,#395,#396,#397,#398,#399,#400,#401,#402,#403,#404,
#405));
#895=EDGE_LOOP('',(#406,#407,#408,#409));
#896=EDGE_LOOP('',(#410,#411,#412,#413));
#897=EDGE_LOOP('',(#414,#415,#416,#417));
#898=EDGE_LOOP('',(#418,#419,#420,#421));
#899=EDGE_LOOP('',(#422,#423,#424,#425));
#900=EDGE_LOOP('',(#426,#427,#428,#429));
#901=EDGE_LOOP('',(#430,#431,#432,#433,#434,#435));
#902=EDGE_LOOP('',(#436,#437,#438,#439,#440,#441));
#903=EDGE_LOOP('',(#442));
#904=EDGE_LOOP('',(#443,#444,#445,#446));
#905=EDGE_LOOP('',(#447,#448,#449,#450,#451,#452));
#906=EDGE_LOOP('',(#453,#454,#455,#456,#457,#458));
#907=EDGE_LOOP('',(#459,#460,#461,#462));
#908=EDGE_LOOP('',(#463));
#909=EDGE_LOOP('',(#464,#465,#466,#467));
#910=EDGE_LOOP('',(#468,#469,#470,#471));
#911=EDGE_LOOP('',(#472,#473,#474,#475,#476,#477));
#912=EDGE_LOOP('',(#478,#479,#480,#481,#482,#483));
#913=EDGE_LOOP('',(#484));
#914=EDGE_LOOP('',(#485,#486,#487,#488));
#915=EDGE_LOOP('',(#489,#490,#491,#492,#493,#494));
#916=EDGE_LOOP('',(#495,#496,#497,#498,#499,#500));
#917=EDGE_LOOP('',(#501,#502,#503,#504));
#918=EDGE_LOOP('',(#505));
#919=EDGE_LOOP('',(#506,#507,#508,#509));
#920=EDGE_LOOP('',(#510));
#921=EDGE_LOOP('',(#511));
#922=EDGE_LOOP('',(#512));
#923=EDGE_LOOP('',(#513));
#924=EDGE_LOOP('',(#514));
#925=EDGE_LOOP('',(#515));
#926=EDGE_LOOP('',(#516));
#927=EDGE_LOOP('',(#517));
#928=EDGE_LOOP('',(#518));
#929=EDGE_LOOP('',(#519));
#930=EDGE_LOOP('',(#520));
#931=EDGE_LOOP('',(#521));
#932=EDGE_LOOP('',(#522,#523,#524,#525));
#933=EDGE_LOOP('',(#526,#527,#528,#529));
#934=EDGE_LOOP('',(#530,#531,#532,#533));
#935=EDGE_LOOP('',(#534,#535,#536,#537));
#936=EDGE_LOOP('',(#538));
#937=EDGE_LOOP('',(#539));
#938=EDGE_LOOP('',(#540));
#939=EDGE_LOOP('',(#541));
#940=EDGE_LOOP('',(#542));
#941=EDGE_LOOP('',(#543));
#942=EDGE_LOOP('',(#544));
#943=EDGE_LOOP('',(#545));
#944=EDGE_LOOP('',(#546,#547,#548,#549));
#945=EDGE_LOOP('',(#550,#551,#552,#553));
#946=EDGE_LOOP('',(#554,#555,#556,#557));
#947=EDGE_LOOP('',(#558,#559,#560,#561));
#948=FACE_BOUND('',#866,.T.);
#949=FACE_BOUND('',#867,.T.);
#950=FACE_BOUND('',#868,.T.);
#951=FACE_BOUND('',#869,.T.);
#952=FACE_BOUND('',#870,.T.);
#953=FACE_BOUND('',#871,.T.);
#954=FACE_BOUND('',#872,.T.);
#955=FACE_BOUND('',#873,.T.);
#956=FACE_BOUND('',#874,.T.);
#957=FACE_BOUND('',#875,.T.);
#958=FACE_BOUND('',#876,.T.);
#959=FACE_BOUND('',#877,.T.);
#960=FACE_BOUND('',#878,.T.);
#961=FACE_BOUND('',#879,.T.);
#962=FACE_BOUND('',#880,.T.);
#963=FACE_BOUND('',#881,.T.);
#964=FACE_BOUND('',#882,.T.);
#965=FACE_BOUND('',#883,.T.);
#966=FACE_BOUND('',#884,.T.);
#967=FACE_BOUND('',#885,.T.);
#968=FACE_BOUND('',#886,.T.);
#969=FACE_BOUND('',#887,.T.);
#970=FACE_BOUND('',#888,.T.);
#971=FACE_BOUND('',#889,.T.);
#972=FACE_BOUND('',#890,.T.);
#973=FACE_BOUND('',#891,.T.);
#974=FACE_BOUND('',#892,.T.);
#975=FACE_BOUND('',#893,.T.);
#976=FACE_BOUND('',#894,.T.);
#977=FACE_BOUND('',#895,.T.);
#978=FACE_BOUND('',#896,.T.);
#979=FACE_BOUND('',#897,.T.);
#980=FACE_BOUND('',#898,.T.);
#981=FACE_BOUND('',#899,.T.);
#982=FACE_BOUND('',#900,.T.);
#983=FACE_BOUND('',#901,.T.);
#984=FACE_BOUND('',#902,.T.);
#985=FACE_BOUND('',#903,.T.);
#986=FACE_BOUND('',#904,.T.);
#987=FACE_BOUND('',#905,.T.);
#988=FACE_BOUND('',#906,.T.);
#989=FACE_BOUND('',#907,.T.);
#990=FACE_BOUND('',#908,.T.);
#991=FACE_BOUND('',#909,.T.);
#992=FACE_BOUND('',#910,.T.);
#993=FACE_BOUND('',#911,.T.);
#994=FACE_BOUND('',#912,.T.);
#995=FACE_BOUND('',#913,.T.);
#996=FACE_BOUND('',#914,.T.);
#997=FACE_BOUND('',#915,.T.);
#998=FACE_BOUND('',#916,.T.);
#999=FACE_BOUND('',#917,.T.);
#1000=FACE_BOUND('',#918,.T.);
#1001=FACE_BOUND('',#919,.T.);
#1002=FACE_BOUND('',#920,.T.);
#1003=FACE_BOUND('',#921,.T.);
#1004=FACE_BOUND('',#922,.T.);
#1005=FACE_BOUND('',#923,.T.);
#1006=FACE_BOUND('',#924,.T.);
#1007=FACE_BOUND('',#925,.T.);
#1008=FACE_BOUND('',#926,.T.);
#1009=FACE_BOUND('',#927,.T.);
#1010=FACE_BOUND('',#928,.T.);
#1011=FACE_BOUND('',#929,.T.);
#1012=FACE_BOUND('',#930,.T.);
#1013=FACE_BOUND('',#931,.T.);
#1014=FACE_BOUND('',#932,.T.);
#1015=FACE_BOUND('',#933,.T.);
#1016=FACE_BOUND('',#934,.T.);
#1017=FACE_BOUND('',#935,.T.);
#1018=FACE_BOUND('',#936,.T.);
#1019=FACE_BOUND('',#937,.T.);
#1020=FACE_BOUND('',#938,.T.);
#1021=FACE_BOUND('',#939,.T.);
#1022=FACE_BOUND('',#940,.T.);
#1023=FACE_BOUND('',#941,.T.);
#1024=FACE_BOUND('',#942,.T.);
#1025=FACE_BOUND('',#943,.T.);
#1026=FACE_BOUND('',#944,.T.);
#1027=FACE_BOUND('',#945,.T.);
#1028=FACE_BOUND('',#946,.T.);
#1029=FACE_BOUND('',#947,.T.);
#1030=PLANE('',#1145);
#1031=PLANE('',#1152);
#1032=PLANE('',#1161);
#1033=PLANE('',#1162);
#1034=PLANE('',#1163);
#1035=PLANE('',#1164);
#1036=PLANE('',#1165);
#1037=PLANE('',#1166);
#1038=PLANE('',#1167);
#1039=PLANE('',#1170);
#1040=PLANE('',#1174);
#1041=PLANE('',#1178);
#1042=PLANE('',#1179);
#1043=PLANE('',#1190);
#1044=PLANE('',#1195);
#1045=PLANE('',#1197);
#1046=PLANE('',#1199);
#1047=PLANE('',#1201);
#1048=PLANE('',#1205);
#1049=PLANE('',#1206);
#1050=PLANE('',#1207);
#1051=PLANE('',#1209);
#1052=PLANE('',#1210);
#1053=PLANE('',#1213);
#1054=PLANE('',#1217);
#1055=PLANE('',#1218);
#1056=PLANE('',#1219);
#1057=PLANE('',#1221);
#1058=PLANE('',#1222);
#1059=PLANE('',#1225);
#1060=PLANE('',#1229);
#1061=PLANE('',#1232);
#1062=PLANE('',#1235);
#1063=PLANE('',#1238);
#1064=PLANE('',#1239);
#1065=PLANE('',#1240);
#1066=PLANE('',#1241);
#1067=PLANE('',#1242);
#1068=ADVANCED_FACE('',(#948),#1030,.T.);
#1069=ADVANCED_FACE('',(#949),#20,.T.);
#1070=ADVANCED_FACE('',(#950),#21,.F.);
#1071=ADVANCED_FACE('',(#951),#1031,.T.);
#1072=ADVANCED_FACE('',(#952),#22,.F.);
#1073=ADVANCED_FACE('',(#953),#23,.T.);
#1074=ADVANCED_FACE('',(#954),#1032,.T.);
#1075=ADVANCED_FACE('',(#955),#1033,.T.);
#1076=ADVANCED_FACE('',(#956),#1034,.F.);
#1077=ADVANCED_FACE('',(#957),#1035,.F.);
#1078=ADVANCED_FACE('',(#958),#1036,.T.);
#1079=ADVANCED_FACE('',(#959),#1037,.T.);
#1080=ADVANCED_FACE('',(#960),#1038,.T.);
#1081=ADVANCED_FACE('',(#961),#1039,.T.);
#1082=ADVANCED_FACE('',(#962),#24,.T.);
#1083=ADVANCED_FACE('',(#963),#1040,.F.);
#1084=ADVANCED_FACE('',(#964),#25,.T.);
#1085=ADVANCED_FACE('',(#965),#1041,.T.);
#1086=ADVANCED_FACE('',(#966,#967,#968,#969,#970),#1042,.T.);
#1087=ADVANCED_FACE('',(#971,#972,#973),#1043,.F.);
#1088=ADVANCED_FACE('',(#974),#1044,.F.);
#1089=ADVANCED_FACE('',(#975),#26,.T.);
#1090=ADVANCED_FACE('',(#976),#1045,.T.);
#1091=ADVANCED_FACE('',(#977),#27,.F.);
#1092=ADVANCED_FACE('',(#978),#1046,.T.);
#1093=ADVANCED_FACE('',(#979),#28,.F.);
#1094=ADVANCED_FACE('',(#980),#1047,.F.);
#1095=ADVANCED_FACE('',(#981),#29,.T.);
#1096=ADVANCED_FACE('',(#982),#30,.T.);
#1097=ADVANCED_FACE('',(#983),#1048,.F.);
#1098=ADVANCED_FACE('',(#984),#1049,.T.);
#1099=ADVANCED_FACE('',(#985,#986),#1050,.T.);
#1100=ADVANCED_FACE('',(#987),#1051,.T.);
#1101=ADVANCED_FACE('',(#988),#1052,.F.);
#1102=ADVANCED_FACE('',(#989),#31,.T.);
#1103=ADVANCED_FACE('',(#990,#991),#1053,.T.);
#1104=ADVANCED_FACE('',(#992),#32,.T.);
#1105=ADVANCED_FACE('',(#993),#1054,.F.);
#1106=ADVANCED_FACE('',(#994),#1055,.T.);
#1107=ADVANCED_FACE('',(#995,#996),#1056,.T.);
#1108=ADVANCED_FACE('',(#997),#1057,.T.);
#1109=ADVANCED_FACE('',(#998),#1058,.F.);
#1110=ADVANCED_FACE('',(#999),#33,.T.);
#1111=ADVANCED_FACE('',(#1000,#1001),#1059,.T.);
#1112=ADVANCED_FACE('',(#1002,#1003),#34,.T.);
#1113=ADVANCED_FACE('',(#1004),#1060,.T.);
#1114=ADVANCED_FACE('',(#1005,#1006),#35,.T.);
#1115=ADVANCED_FACE('',(#1007),#1061,.T.);
#1116=ADVANCED_FACE('',(#1008,#1009),#36,.T.);
#1117=ADVANCED_FACE('',(#1010),#1062,.T.);
#1118=ADVANCED_FACE('',(#1011,#1012),#37,.T.);
#1119=ADVANCED_FACE('',(#1013),#1063,.T.);
#1120=ADVANCED_FACE('',(#1014),#1064,.F.);
#1121=ADVANCED_FACE('',(#1015),#1065,.T.);
#1122=ADVANCED_FACE('',(#1016),#1066,.F.);
#1123=ADVANCED_FACE('',(#1017),#1067,.T.);
#1124=ADVANCED_FACE('',(#1018,#1019),#38,.F.);
#1125=ADVANCED_FACE('',(#1020,#1021),#18,.F.);
#1126=ADVANCED_FACE('',(#1022,#1023),#39,.F.);
#1127=ADVANCED_FACE('',(#1024,#1025),#19,.F.);
#1128=ADVANCED_FACE('',(#1026),#16,.T.);
#1129=ADVANCED_FACE('',(#1027),#40,.T.);
#1130=ADVANCED_FACE('',(#1028),#41,.T.);
#1131=ADVANCED_FACE('',(#1029),#17,.T.);
#1132=CLOSED_SHELL('',(#1068,#1069,#1070,#1071,#1072,#1073,#1074,#1075,
#1076,#1077,#1078,#1079,#1080,#1081,#1082,#1083,#1084,#1085,#1086,#1087,
#1088,#1089,#1090,#1091,#1092,#1093,#1094,#1095,#1096,#1097,#1098,#1099,
#1100,#1101,#1102,#1103,#1104,#1105,#1106,#1107,#1108,#1109,#1110,#1111,
#1112,#1113,#1114,#1115,#1116,#1117,#1118,#1119,#1120,#1121,#1122,#1123,
#1124,#1125,#1126,#1127,#1128,#1129,#1130,#1131));
#1133=STYLED_ITEM('',(#1134),#1141);
#1134=PRESENTATION_STYLE_ASSIGNMENT((#1135));
#1135=SURFACE_STYLE_USAGE(.BOTH.,#1136);
#1136=SURFACE_SIDE_STYLE('',(#1137));
#1137=SURFACE_STYLE_FILL_AREA(#1138);
#1138=FILL_AREA_STYLE('',(#1139));
#1139=FILL_AREA_STYLE_COLOUR('',#1140);
#1140=COLOUR_RGB('',0.647058823529412,0.647058823529412,0.647058823529412);
#1141=MANIFOLD_SOLID_BREP('BottomHousing',#1132);
#1142=SHAPE_DEFINITION_REPRESENTATION(#1924,#1143);
#1143=SHAPE_REPRESENTATION('BottomHousing',(#1144),#1919);
#1144=AXIS2_PLACEMENT_3D('',#1577,#1253,#1254);
#1145=AXIS2_PLACEMENT_3D('',#1578,#1255,#1256);
#1146=AXIS2_PLACEMENT_3D('',#1579,#1257,#1258);
#1147=AXIS2_PLACEMENT_3D('',#1584,#1260,#1261);
#1148=AXIS2_PLACEMENT_3D('',#1591,#1265,#1266);
#1149=AXIS2_PLACEMENT_3D('',#1594,#1268,#1269);
#1150=AXIS2_PLACEMENT_3D('',#1597,#1271,#1272);
#1151=AXIS2_PLACEMENT_3D('',#1598,#1273,#1274);
#1152=AXIS2_PLACEMENT_3D('',#1603,#1277,#1278);
#1153=AXIS2_PLACEMENT_3D('',#1604,#1279,#1280);
#1154=AXIS2_PLACEMENT_3D('',#1609,#1282,#1283);
#1155=AXIS2_PLACEMENT_3D('',#1616,#1287,#1288);
#1156=AXIS2_PLACEMENT_3D('',#1620,#1290,#1291);
#1157=AXIS2_PLACEMENT_3D('',#1624,#1293,#1294);
#1158=AXIS2_PLACEMENT_3D('',#1625,#1295,#1296);
#1159=AXIS2_PLACEMENT_3D('',#1626,#1297,#1298);
#1160=AXIS2_PLACEMENT_3D('',#1631,#1300,#1301);
#1161=AXIS2_PLACEMENT_3D('',#1634,#1303,#1304);
#1162=AXIS2_PLACEMENT_3D('',#1643,#1309,#1310);
#1163=AXIS2_PLACEMENT_3D('',#1649,#1314,#1315);
#1164=AXIS2_PLACEMENT_3D('',#1658,#1320,#1321);
#1165=AXIS2_PLACEMENT_3D('',#1662,#1324,#1325);
#1166=AXIS2_PLACEMENT_3D('',#1668,#1329,#1330);
#1167=AXIS2_PLACEMENT_3D('',#1674,#1334,#1335);
#1168=AXIS2_PLACEMENT_3D('',#1678,#1337,#1338);
#1169=AXIS2_PLACEMENT_3D('',#1686,#1342,#1343);
#1170=AXIS2_PLACEMENT_3D('',#1687,#1344,#1345);
#1171=AXIS2_PLACEMENT_3D('',#1694,#1350,#1351);
#1172=AXIS2_PLACEMENT_3D('',#1698,#1353,#1354);
#1173=AXIS2_PLACEMENT_3D('',#1702,#1356,#1357);
#1174=AXIS2_PLACEMENT_3D('',#1703,#1358,#1359);
#1175=AXIS2_PLACEMENT_3D('',#1709,#1363,#1364);
#1176=AXIS2_PLACEMENT_3D('',#1710,#1365,#1366);
#1177=AXIS2_PLACEMENT_3D('',#1714,#1368,#1369);
#1178=AXIS2_PLACEMENT_3D('',#1715,#1370,#1371);
#1179=AXIS2_PLACEMENT_3D('',#1718,#1374,#1375);
#1180=AXIS2_PLACEMENT_3D('',#1719,#1376,#1377);
#1181=AXIS2_PLACEMENT_3D('',#1721,#1378,#1379);
#1182=AXIS2_PLACEMENT_3D('',#1723,#1380,#1381);
#1183=AXIS2_PLACEMENT_3D('',#1728,#1383,#1384);
#1184=AXIS2_PLACEMENT_3D('',#1732,#1386,#1387);
#1185=AXIS2_PLACEMENT_3D('',#1736,#1389,#1390);
#1186=AXIS2_PLACEMENT_3D('',#1739,#1392,#1393);
#1187=AXIS2_PLACEMENT_3D('',#1744,#1396,#1397);
#1188=AXIS2_PLACEMENT_3D('',#1752,#1402,#1403);
#1189=AXIS2_PLACEMENT_3D('',#1757,#1406,#1407);
#1190=AXIS2_PLACEMENT_3D('',#1764,#1412,#1413);
#1191=AXIS2_PLACEMENT_3D('',#1768,#1415,#1416);
#1192=AXIS2_PLACEMENT_3D('',#1772,#1418,#1419);
#1193=AXIS2_PLACEMENT_3D('',#1773,#1420,#1421);
#1194=AXIS2_PLACEMENT_3D('',#1775,#1422,#1423);
#1195=AXIS2_PLACEMENT_3D('',#1777,#1424,#1425);
#1196=AXIS2_PLACEMENT_3D('',#1790,#1434,#1435);
#1197=AXIS2_PLACEMENT_3D('',#1792,#1437,#1438);
#1198=AXIS2_PLACEMENT_3D('',#1803,#1445,#1446);
#1199=AXIS2_PLACEMENT_3D('',#1806,#1449,#1450);
#1200=AXIS2_PLACEMENT_3D('',#1808,#1452,#1453);
#1201=AXIS2_PLACEMENT_3D('',#1810,#1455,#1456);
#1202=AXIS2_PLACEMENT_3D('',#1812,#1458,#1459);
#1203=AXIS2_PLACEMENT_3D('',#1814,#1461,#1462);
#1204=AXIS2_PLACEMENT_3D('',#1817,#1464,#1465);
#1205=AXIS2_PLACEMENT_3D('',#1820,#1467,#1468);
#1206=AXIS2_PLACEMENT_3D('',#1822,#1470,#1471);
#1207=AXIS2_PLACEMENT_3D('',#1824,#1473,#1474);
#1208=AXIS2_PLACEMENT_3D('',#1825,#1475,#1476);
#1209=AXIS2_PLACEMENT_3D('',#1827,#1477,#1478);
#1210=AXIS2_PLACEMENT_3D('',#1831,#1481,#1482);
#1211=AXIS2_PLACEMENT_3D('',#1835,#1485,#1486);
#1212=AXIS2_PLACEMENT_3D('',#1836,#1487,#1488);
#1213=AXIS2_PLACEMENT_3D('',#1837,#1489,#1490);
#1214=AXIS2_PLACEMENT_3D('',#1838,#1491,#1492);
#1215=AXIS2_PLACEMENT_3D('',#1840,#1493,#1494);
#1216=AXIS2_PLACEMENT_3D('',#1843,#1496,#1497);
#1217=AXIS2_PLACEMENT_3D('',#1846,#1499,#1500);
#1218=AXIS2_PLACEMENT_3D('',#1848,#1502,#1503);
#1219=AXIS2_PLACEMENT_3D('',#1850,#1505,#1506);
#1220=AXIS2_PLACEMENT_3D('',#1851,#1507,#1508);
#1221=AXIS2_PLACEMENT_3D('',#1853,#1509,#1510);
#1222=AXIS2_PLACEMENT_3D('',#1857,#1513,#1514);
#1223=AXIS2_PLACEMENT_3D('',#1861,#1517,#1518);
#1224=AXIS2_PLACEMENT_3D('',#1862,#1519,#1520);
#1225=AXIS2_PLACEMENT_3D('',#1863,#1521,#1522);
#1226=AXIS2_PLACEMENT_3D('',#1864,#1523,#1524);
#1227=AXIS2_PLACEMENT_3D('',#1866,#1525,#1526);
#1228=AXIS2_PLACEMENT_3D('',#1867,#1527,#1528);
#1229=AXIS2_PLACEMENT_3D('',#1869,#1529,#1530);
#1230=AXIS2_PLACEMENT_3D('',#1870,#1531,#1532);
#1231=AXIS2_PLACEMENT_3D('',#1871,#1533,#1534);
#1232=AXIS2_PLACEMENT_3D('',#1873,#1535,#1536);
#1233=AXIS2_PLACEMENT_3D('',#1874,#1537,#1538);
#1234=AXIS2_PLACEMENT_3D('',#1875,#1539,#1540);
#1235=AXIS2_PLACEMENT_3D('',#1877,#1541,#1542);
#1236=AXIS2_PLACEMENT_3D('',#1878,#1543,#1544);
#1237=AXIS2_PLACEMENT_3D('',#1879,#1545,#1546);
#1238=AXIS2_PLACEMENT_3D('',#1881,#1547,#1548);
#1239=AXIS2_PLACEMENT_3D('',#1882,#1549,#1550);
#1240=AXIS2_PLACEMENT_3D('',#1883,#1551,#1552);
#1241=AXIS2_PLACEMENT_3D('',#1884,#1553,#1554);
#1242=AXIS2_PLACEMENT_3D('',#1885,#1555,#1556);
#1243=AXIS2_PLACEMENT_3D('',#1886,#1557,#1558);
#1244=AXIS2_PLACEMENT_3D('',#1887,#1559,#1560);
#1245=AXIS2_PLACEMENT_3D('',#1889,#1561,#1562);
#1246=AXIS2_PLACEMENT_3D('',#1890,#1563,#1564);
#1247=AXIS2_PLACEMENT_3D('',#1891,#1565,#1566);
#1248=AXIS2_PLACEMENT_3D('',#1893,#1567,#1568);
#1249=AXIS2_PLACEMENT_3D('',#1894,#1569,#1570);
#1250=AXIS2_PLACEMENT_3D('',#1905,#1571,#1572);
#1251=AXIS2_PLACEMENT_3D('',#1911,#1573,#1574);
#1252=AXIS2_PLACEMENT_3D('',#1917,#1575,#1576);
#1253=DIRECTION('',(0.,0.,1.));
#1254=DIRECTION('',(1.,0.,0.));
#1255=DIRECTION('',(0.,0.,1.));
#1256=DIRECTION('',(1.,0.,0.));
#1257=DIRECTION('',(0.,0.,1.));
#1258=DIRECTION('',(1.,0.,0.));
#1259=DIRECTION('',(0.,-1.,0.));
#1260=DIRECTION('',(0.,0.,1.));
#1261=DIRECTION('',(1.,0.,0.));
#1262=DIRECTION('',(-1.65970323553793E-16,-1.,0.));
#1263=DIRECTION('',(-1.,0.,0.));
#1264=DIRECTION('',(-1.70621465953009E-16,-1.,0.));
#1265=DIRECTION('',(0.,0.,-1.));
#1266=DIRECTION('',(-1.,0.,0.));
#1267=DIRECTION('',(0.,0.,1.));
#1268=DIRECTION('',(0.,0.,1.));
#1269=DIRECTION('',(1.,0.,0.));
#1270=DIRECTION('',(0.,0.,-1.));
#1271=DIRECTION('',(0.,0.,-1.));
#1272=DIRECTION('',(-1.,0.,0.));
#1273=DIRECTION('',(0.,0.,1.));
#1274=DIRECTION('',(1.,0.,0.));
#1275=DIRECTION('',(0.,0.,1.));
#1276=DIRECTION('',(0.,0.,-1.));
#1277=DIRECTION('',(0.,0.,1.));
#1278=DIRECTION('',(1.,0.,0.));
#1279=DIRECTION('',(0.,0.,-1.));
#1280=DIRECTION('',(1.,0.,0.));
#1281=DIRECTION('',(0.,1.,0.));
#1282=DIRECTION('',(0.,0.,-1.));
#1283=DIRECTION('',(1.,0.,0.));
#1284=DIRECTION('',(-1.65970323553793E-16,-1.,0.));
#1285=DIRECTION('',(1.,0.,0.));
#1286=DIRECTION('',(-1.70621465953009E-16,-1.,0.));
#1287=DIRECTION('',(0.,0.,-1.));
#1288=DIRECTION('',(-1.,0.,0.));
#1289=DIRECTION('',(0.,0.,1.));
#1290=DIRECTION('',(0.,0.,-1.));
#1291=DIRECTION('',(1.,0.,0.));
#1292=DIRECTION('',(0.,0.,-1.));
#1293=DIRECTION('',(0.,0.,-1.));
#1294=DIRECTION('',(1.,0.,0.));
#1295=DIRECTION('',(0.,0.,-1.));
#1296=DIRECTION('',(-1.,0.,0.));
#1297=DIRECTION('',(0.,0.,-1.));
#1298=DIRECTION('',(1.,0.,0.));
#1299=DIRECTION('',(0.,0.,1.));
#1300=DIRECTION('',(0.,0.,-1.));
#1301=DIRECTION('',(1.,0.,0.));
#1302=DIRECTION('',(0.,0.,-1.));
#1303=DIRECTION('',(1.,-1.70621465953009E-16,0.));
#1304=DIRECTION('',(1.70621465953009E-16,1.,0.));
#1305=DIRECTION('',(-1.70621465953009E-16,-1.,0.));
#1306=DIRECTION('',(0.,0.,-1.));
#1307=DIRECTION('',(-1.70621465953009E-16,-1.,0.));
#1308=DIRECTION('',(0.,0.,-1.));
#1309=DIRECTION('',(1.,-1.70621465953009E-16,0.));
#1310=DIRECTION('',(1.70621465953009E-16,1.,0.));
#1311=DIRECTION('',(0.,0.,-1.));
#1312=DIRECTION('',(-1.70621465953009E-16,-1.,0.));
#1313=DIRECTION('',(0.,0.,-1.));
#1314=DIRECTION('',(1.,-1.70621465953009E-16,0.));
#1315=DIRECTION('',(1.70621465953009E-16,1.,0.));
#1316=DIRECTION('',(0.,0.,1.));
#1317=DIRECTION('',(-1.70621465953009E-16,-1.,0.));
#1318=DIRECTION('',(0.,0.,1.));
#1319=DIRECTION('',(-1.70621465953009E-16,-1.,0.));
#1320=DIRECTION('',(1.,-1.70621465953009E-16,0.));
#1321=DIRECTION('',(1.70621465953009E-16,1.,0.));
#1322=DIRECTION('',(0.,0.,1.));
#1323=DIRECTION('',(-1.70621465953009E-16,-1.,0.));
#1324=DIRECTION('',(0.,0.,1.));
#1325=DIRECTION('',(1.,0.,0.));
#1326=DIRECTION('',(-1.65970323553793E-16,-1.,0.));
#1327=DIRECTION('',(-1.,0.,0.));
#1328=DIRECTION('',(-1.,0.,0.));
#1329=DIRECTION('',(0.,0.,1.));
#1330=DIRECTION('',(1.,0.,0.));
#1331=DIRECTION('',(-1.65970323553793E-16,-1.,0.));
#1332=DIRECTION('',(1.,0.,0.));
#1333=DIRECTION('',(1.,0.,0.));
#1334=DIRECTION('',(0.,0.,1.));
#1335=DIRECTION('',(1.,0.,0.));
#1336=DIRECTION('',(0.,-1.,0.));
#1337=DIRECTION('',(0.,0.,1.));
#1338=DIRECTION('',(1.,0.,0.));
#1339=DIRECTION('',(-1.70621465953009E-16,-1.,0.));
#1340=DIRECTION('',(1.,0.,0.));
#1341=DIRECTION('',(-1.65970323553793E-16,-1.,0.));
#1342=DIRECTION('',(0.,0.,1.));
#1343=DIRECTION('',(1.,0.,0.));
#1344=DIRECTION('',(0.,0.,1.));
#1345=DIRECTION('',(1.,0.,0.));
#1346=DIRECTION('',(0.,1.,0.));
#1347=DIRECTION('',(-1.70621465953009E-16,-1.,0.));
#1348=DIRECTION('',(-1.,0.,0.));
#1349=DIRECTION('',(-1.65970323553793E-16,-1.,0.));
#1350=DIRECTION('',(0.,0.,-1.));
#1351=DIRECTION('',(-1.,0.,0.));
#1352=DIRECTION('',(0.,0.,-1.));
#1353=DIRECTION('',(0.,0.,1.));
#1354=DIRECTION('',(1.,0.,0.));
#1355=DIRECTION('',(0.,0.,-1.));
#1356=DIRECTION('',(0.,0.,-1.));
#1357=DIRECTION('',(1.,0.,0.));
#1358=DIRECTION('',(1.,-1.61369625672261E-16,0.));
#1359=DIRECTION('',(1.61369625672261E-16,1.,0.));
#1360=DIRECTION('',(-1.61369625672261E-16,-1.,0.));
#1361=DIRECTION('',(0.,0.,-1.));
#1362=DIRECTION('',(-1.61369625672261E-16,-1.,0.));
#1363=DIRECTION('',(0.,0.,-1.));
#1364=DIRECTION('',(-1.,0.,0.));
#1365=DIRECTION('',(0.,0.,1.));
#1366=DIRECTION('',(1.,0.,0.));
#1367=DIRECTION('',(0.,0.,-1.));
#1368=DIRECTION('',(0.,0.,1.));
#1369=DIRECTION('',(1.,0.,0.));
#1370=DIRECTION('',(1.,-1.61369625672261E-16,0.));
#1371=DIRECTION('',(1.61369625672261E-16,1.,0.));
#1372=DIRECTION('',(-1.61369625672261E-16,-1.,0.));
#1373=DIRECTION('',(-1.61369625672261E-16,-1.,0.));
#1374=DIRECTION('',(0.,0.,1.));
#1375=DIRECTION('',(1.,0.,0.));
#1376=DIRECTION('',(0.,0.,1.));
#1377=DIRECTION('',(1.,0.,0.));
#1378=DIRECTION('',(0.,0.,1.));
#1379=DIRECTION('',(1.,0.,0.));
#1380=DIRECTION('',(0.,0.,1.));
#1381=DIRECTION('',(1.,0.,0.));
#1382=DIRECTION('',(0.,1.,0.));
#1383=DIRECTION('',(0.,0.,1.));
#1384=DIRECTION('',(1.,0.,0.));
#1385=DIRECTION('',(-1.65970323553793E-16,-1.,0.));
#1386=DIRECTION('',(0.,0.,-1.));
#1387=DIRECTION('',(1.,0.,0.));
#1388=DIRECTION('',(0.,-1.,0.));
#1389=DIRECTION('',(0.,0.,-1.));
#1390=DIRECTION('',(1.,0.,0.));
#1391=DIRECTION('',(-1.,0.,0.));
#1392=DIRECTION('',(0.,0.,1.));
#1393=DIRECTION('',(1.,0.,0.));
#1394=DIRECTION('',(-1.,0.,0.));
#1395=DIRECTION('',(-1.,0.,0.));
#1396=DIRECTION('',(0.,0.,-1.));
#1397=DIRECTION('',(1.,0.,0.));
#1398=DIRECTION('',(-1.,0.,0.));
#1399=DIRECTION('',(-1.70621465953009E-16,-1.,0.));
#1400=DIRECTION('',(0.,1.,0.));
#1401=DIRECTION('',(1.,0.,0.));
#1402=DIRECTION('',(0.,0.,1.));
#1403=DIRECTION('',(1.,0.,0.));
#1404=DIRECTION('',(1.,0.,0.));
#1405=DIRECTION('',(1.,0.,0.));
#1406=DIRECTION('',(0.,0.,-1.));
#1407=DIRECTION('',(1.,0.,0.));
#1408=DIRECTION('',(1.,0.,0.));
#1409=DIRECTION('',(-1.70621465953009E-16,-1.,0.));
#1410=DIRECTION('',(0.,-1.,0.));
#1411=DIRECTION('',(-1.65970323553793E-16,-1.,0.));
#1412=DIRECTION('',(0.,0.,1.));
#1413=DIRECTION('',(1.,0.,0.));
#1414=DIRECTION('',(-1.61369625672261E-16,-1.,0.));
#1415=DIRECTION('',(0.,0.,1.));
#1416=DIRECTION('',(1.,0.,0.));
#1417=DIRECTION('',(-1.61369625672261E-16,-1.,0.));
#1418=DIRECTION('',(0.,0.,1.));
#1419=DIRECTION('',(1.,0.,0.));
#1420=DIRECTION('',(0.,0.,1.));
#1421=DIRECTION('',(1.,0.,0.));
#1422=DIRECTION('',(0.,0.,1.));
#1423=DIRECTION('',(1.,0.,0.));
#1424=DIRECTION('',(1.,-1.65970323553793E-16,0.));
#1425=DIRECTION('',(1.65970323553793E-16,1.,0.));
#1426=DIRECTION('',(0.,0.,-1.));
#1427=DIRECTION('',(0.,-1.,0.));
#1428=DIRECTION('',(0.,0.,-1.));
#1429=DIRECTION('',(0.,0.,-1.));
#1430=DIRECTION('',(0.,-1.,0.));
#1431=DIRECTION('',(0.,0.,-1.));
#1432=DIRECTION('',(0.,0.,-1.));
#1433=DIRECTION('',(0.,0.,-1.));
#1434=DIRECTION('',(0.,0.,-1.));
#1435=DIRECTION('',(-1.,0.,0.));
#1436=DIRECTION('',(0.,0.,1.));
#1437=DIRECTION('',(1.,-1.65970323553793E-16,0.));
#1438=DIRECTION('',(1.65970323553793E-16,1.,0.));
#1439=DIRECTION('',(0.,0.,-1.));
#1440=DIRECTION('',(0.,-1.,0.));
#1441=DIRECTION('',(0.,0.,-1.));
#1442=DIRECTION('',(0.,0.,-1.));
#1443=DIRECTION('',(0.,-1.,0.));
#1444=DIRECTION('',(0.,0.,-1.));
#1445=DIRECTION('',(0.,0.,-1.));
#1446=DIRECTION('',(-1.,0.,0.));
#1447=DIRECTION('',(0.,0.,1.));
#1448=DIRECTION('',(0.,0.,-1.));
#1449=DIRECTION('',(1.,-1.70621465953009E-16,0.));
#1450=DIRECTION('',(1.70621465953009E-16,1.,0.));
#1451=DIRECTION('',(0.,0.,-1.));
#1452=DIRECTION('',(0.,0.,-1.));
#1453=DIRECTION('',(-1.,0.,0.));
#1454=DIRECTION('',(0.,0.,1.));
#1455=DIRECTION('',(1.,-1.70621465953009E-16,0.));
#1456=DIRECTION('',(1.70621465953009E-16,1.,0.));
#1457=DIRECTION('',(0.,0.,1.));
#1458=DIRECTION('',(0.,0.,-1.));
#1459=DIRECTION('',(-1.,0.,0.));
#1460=DIRECTION('',(0.,0.,1.));
#1461=DIRECTION('',(0.,0.,-1.));
#1462=DIRECTION('',(-1.,0.,0.));
#1463=DIRECTION('',(0.,0.,-1.));
#1464=DIRECTION('',(0.,0.,1.));
#1465=DIRECTION('',(1.,0.,0.));
#1466=DIRECTION('',(0.,0.,-1.));
#1467=DIRECTION('',(0.,-1.,0.));
#1468=DIRECTION('',(0.,0.,-1.));
#1469=DIRECTION('',(-1.,0.,0.));
#1470=DIRECTION('',(0.,-1.,0.));
#1471=DIRECTION('',(0.,0.,-1.));
#1472=DIRECTION('',(-1.,0.,0.));
#1473=DIRECTION('',(0.,0.,1.));
#1474=DIRECTION('',(1.,0.,0.));
#1475=DIRECTION('',(0.,0.,1.));
#1476=DIRECTION('',(1.,0.,0.));
#1477=DIRECTION('',(0.,1.,0.));
#1478=DIRECTION('',(0.,0.,1.));
#1479=DIRECTION('',(0.,0.,-1.));
#1480=DIRECTION('',(1.,0.,0.));
#1481=DIRECTION('',(0.,1.,0.));
#1482=DIRECTION('',(0.,0.,1.));
#1483=DIRECTION('',(1.,0.,0.));
#1484=DIRECTION('',(0.,0.,-1.));
#1485=DIRECTION('',(0.,0.,-1.));
#1486=DIRECTION('',(-1.,0.,0.));
#1487=DIRECTION('',(0.,0.,1.));
#1488=DIRECTION('',(1.,0.,0.));
#1489=DIRECTION('',(0.,0.,1.));
#1490=DIRECTION('',(1.,0.,0.));
#1491=DIRECTION('',(0.,0.,1.));
#1492=DIRECTION('',(1.,0.,0.));
#1493=DIRECTION('',(0.,0.,-1.));
#1494=DIRECTION('',(-1.,0.,0.));
#1495=DIRECTION('',(0.,0.,-1.));
#1496=DIRECTION('',(0.,0.,-1.));
#1497=DIRECTION('',(1.,0.,0.));
#1498=DIRECTION('',(0.,0.,-1.));
#1499=DIRECTION('',(0.,-1.,0.));
#1500=DIRECTION('',(0.,0.,-1.));
#1501=DIRECTION('',(-1.,0.,0.));
#1502=DIRECTION('',(0.,-1.,0.));
#1503=DIRECTION('',(0.,0.,-1.));
#1504=DIRECTION('',(-1.,0.,0.));
#1505=DIRECTION('',(0.,0.,1.));
#1506=DIRECTION('',(1.,0.,0.));
#1507=DIRECTION('',(0.,0.,1.));
#1508=DIRECTION('',(1.,0.,0.));
#1509=DIRECTION('',(0.,1.,0.));
#1510=DIRECTION('',(0.,0.,1.));
#1511=DIRECTION('',(0.,0.,-1.));
#1512=DIRECTION('',(1.,0.,0.));
#1513=DIRECTION('',(0.,1.,0.));
#1514=DIRECTION('',(0.,0.,1.));
#1515=DIRECTION('',(1.,0.,0.));
#1516=DIRECTION('',(0.,0.,-1.));
#1517=DIRECTION('',(0.,0.,-1.));
#1518=DIRECTION('',(-1.,0.,0.));
#1519=DIRECTION('',(0.,0.,-1.));
#1520=DIRECTION('',(1.,0.,0.));
#1521=DIRECTION('',(0.,0.,1.));
#1522=DIRECTION('',(1.,0.,0.));
#1523=DIRECTION('',(0.,0.,1.));
#1524=DIRECTION('',(1.,0.,0.));
#1525=DIRECTION('',(0.,0.,-1.));
#1526=DIRECTION('',(-1.,0.,0.));
#1527=DIRECTION('',(0.,0.,1.));
#1528=DIRECTION('',(1.,0.,0.));
#1529=DIRECTION('',(0.,0.,1.));
#1530=DIRECTION('',(1.,0.,0.));
#1531=DIRECTION('',(0.,0.,-1.));
#1532=DIRECTION('',(-1.,0.,0.));
#1533=DIRECTION('',(0.,0.,1.));
#1534=DIRECTION('',(1.,0.,0.));
#1535=DIRECTION('',(0.,0.,1.));
#1536=DIRECTION('',(1.,0.,0.));
#1537=DIRECTION('',(0.,0.,-1.));
#1538=DIRECTION('',(-1.,0.,0.));
#1539=DIRECTION('',(0.,0.,1.));
#1540=DIRECTION('',(1.,0.,0.));
#1541=DIRECTION('',(0.,0.,1.));
#1542=DIRECTION('',(1.,0.,0.));
#1543=DIRECTION('',(0.,0.,-1.));
#1544=DIRECTION('',(-1.,0.,0.));
#1545=DIRECTION('',(0.,0.,1.));
#1546=DIRECTION('',(1.,0.,0.));
#1547=DIRECTION('',(0.,0.,1.));
#1548=DIRECTION('',(1.,0.,0.));
#1549=DIRECTION('',(1.,0.,0.));
#1550=DIRECTION('',(0.,0.,-1.));
#1551=DIRECTION('',(1.,0.,0.));
#1552=DIRECTION('',(0.,0.,-1.));
#1553=DIRECTION('',(-1.,0.,0.));
#1554=DIRECTION('',(0.,0.,1.));
#1555=DIRECTION('',(-1.,0.,0.));
#1556=DIRECTION('',(0.,0.,1.));
#1557=DIRECTION('',(0.,0.,1.));
#1558=DIRECTION('',(1.,0.,0.));
#1559=DIRECTION('',(0.,0.,1.));
#1560=DIRECTION('',(1.,0.,0.));
#1561=DIRECTION('',(0.,0.,-1.));
#1562=DIRECTION('',(-1.,0.,0.));
#1563=DIRECTION('',(0.,0.,1.));
#1564=DIRECTION('',(1.,0.,0.));
#1565=DIRECTION('',(0.,0.,1.));
#1566=DIRECTION('',(1.,0.,0.));
#1567=DIRECTION('',(0.,0.,-1.));
#1568=DIRECTION('',(-1.,0.,0.));
#1569=DIRECTION('',(0.,0.,1.));
#1570=DIRECTION('',(1.,0.,0.));
#1571=DIRECTION('',(-1.61369625672261E-16,-1.,0.));
#1572=DIRECTION('',(1.,-1.61369625672261E-16,0.));
#1573=DIRECTION('',(1.61369625672261E-16,1.,0.));
#1574=DIRECTION('',(-1.,1.61369625672261E-16,0.));
#1575=DIRECTION('',(0.,0.,1.));
#1576=DIRECTION('',(1.,0.,0.));
#1577=CARTESIAN_POINT('',(0.,0.,0.));
#1578=CARTESIAN_POINT('',(6.93889390390723E-18,0.,0.0036));
#1579=CARTESIAN_POINT('',(1.90819582357449E-17,0.03206225,0.0036));
#1580=CARTESIAN_POINT('',(0.0041,-0.0445904278727429,0.0036));
#1581=CARTESIAN_POINT('',(0.02455,-0.04066835239722,0.0036));
#1582=CARTESIAN_POINT('',(0.0041,-0.0450463341082226,0.0036));
#1583=CARTESIAN_POINT('',(0.0041,-0.046192668216445,0.0036));
#1584=CARTESIAN_POINT('',(8.67361737988404E-18,0.03206225,0.0036));
#1585=CARTESIAN_POINT('',(0.02615,-0.0418080398671889,0.0036));
#1586=CARTESIAN_POINT('',(0.02615,-1.38777878078145E-17,0.0036));
#1587=CARTESIAN_POINT('',(0.02615,-0.0364,0.0036));
#1588=CARTESIAN_POINT('',(6.93889390390723E-18,-0.0364,0.0036));
#1589=CARTESIAN_POINT('',(0.02455,-0.0364,0.0036));
#1590=CARTESIAN_POINT('',(0.02455,-1.38777878078145E-17,0.0036));
#1591=CARTESIAN_POINT('',(8.67361737988404E-18,0.03206225,0.0036));
#1592=CARTESIAN_POINT('',(0.0041,-0.046192668216445,0.001598));
#1593=CARTESIAN_POINT('',(0.0041,-0.046192668216445,0.0016));
#1594=CARTESIAN_POINT('',(8.67361737988404E-18,0.03206225,0.0016));
#1595=CARTESIAN_POINT('',(0.02615,-0.0418080398671889,0.0016));
#1596=CARTESIAN_POINT('',(0.02615,-0.0418080398671889,0.0036));
#1597=CARTESIAN_POINT('',(1.90819582357449E-17,0.03206225,0.0036));
#1598=CARTESIAN_POINT('',(1.90819582357449E-17,0.03206225,0.0016));
#1599=CARTESIAN_POINT('',(0.0041,-0.0445904278727429,0.0016));
#1600=CARTESIAN_POINT('',(0.02455,-0.04066835239722,0.0016));
#1601=CARTESIAN_POINT('',(0.0041,-0.0445904278727429,0.001598));
#1602=CARTESIAN_POINT('',(0.02455,-0.04066835239722,0.0036));
#1603=CARTESIAN_POINT('',(6.93889390390723E-18,0.,0.0036));
#1604=CARTESIAN_POINT('',(-6.93889390390723E-18,-0.03206225,0.0036));
#1605=CARTESIAN_POINT('',(-0.02455,0.0406683523972199,0.0036));
#1606=CARTESIAN_POINT('',(-0.0041,0.0445904278727429,0.0036));
#1607=CARTESIAN_POINT('',(-0.0041,0.0450463341082225,0.0036));
#1608=CARTESIAN_POINT('',(-0.0041,0.046192668216445,0.0036));
#1609=CARTESIAN_POINT('',(8.67361737988404E-18,-0.03206225,0.0036));
#1610=CARTESIAN_POINT('',(-0.02615,0.0418080398671888,0.0036));
#1611=CARTESIAN_POINT('',(-0.02615,6.93889390390723E-18,0.0036));
#1612=CARTESIAN_POINT('',(-0.02615,0.0364,0.0036));
#1613=CARTESIAN_POINT('',(6.93889390390723E-18,0.0364,0.0036));
#1614=CARTESIAN_POINT('',(-0.02455,0.0364,0.0036));
#1615=CARTESIAN_POINT('',(-0.02455,6.93889390390723E-18,0.0036));
#1616=CARTESIAN_POINT('',(-6.93889390390723E-18,-0.03206225,0.0036));
#1617=CARTESIAN_POINT('',(0.0041,0.0445904278727429,0.001598));
#1618=CARTESIAN_POINT('',(0.0041,0.0445904278727429,0.0016));
#1619=CARTESIAN_POINT('',(0.0041,0.0445904278727429,0.0036));
#1620=CARTESIAN_POINT('',(-6.93889390390723E-18,-0.03206225,0.0016));
#1621=CARTESIAN_POINT('',(0.02455,0.0406683523972199,0.0016));
#1622=CARTESIAN_POINT('',(0.02455,0.0406683523972199,0.0036));
#1623=CARTESIAN_POINT('',(0.02455,0.0406683523972199,0.0036));
#1624=CARTESIAN_POINT('',(-6.93889390390723E-18,-0.03206225,0.0036));
#1625=CARTESIAN_POINT('',(8.67361737988404E-18,-0.03206225,0.0036));
#1626=CARTESIAN_POINT('',(8.67361737988404E-18,-0.03206225,0.0016));
#1627=CARTESIAN_POINT('',(0.0041,0.046192668216445,0.0016));
#1628=CARTESIAN_POINT('',(0.02615,0.0418080398671888,0.0016));
#1629=CARTESIAN_POINT('',(0.0041,0.046192668216445,0.001598));
#1630=CARTESIAN_POINT('',(0.0041,0.046192668216445,0.0036));
#1631=CARTESIAN_POINT('',(8.67361737988404E-18,-0.03206225,0.0036));
#1632=CARTESIAN_POINT('',(0.02615,0.0418080398671888,0.0036));
#1633=CARTESIAN_POINT('',(0.02615,0.0418080398671888,0.0036));
#1634=CARTESIAN_POINT('',(-0.02455,6.93889390390723E-18,0.0036));
#1635=CARTESIAN_POINT('',(-0.02455,6.93889390390723E-18,0.0036));
#1636=CARTESIAN_POINT('',(-0.02455,0.0304,0.0036));
#1637=CARTESIAN_POINT('',(-0.02455,-0.0304,0.0036));
#1638=CARTESIAN_POINT('',(-0.02455,-0.0304,0.0036));
#1639=CARTESIAN_POINT('',(-0.02455,-0.0304,0.0016));
#1640=CARTESIAN_POINT('',(-0.02455,6.93889390390723E-18,0.0016));
#1641=CARTESIAN_POINT('',(-0.02455,0.0304,0.0016));
#1642=CARTESIAN_POINT('',(-0.02455,0.0304,0.0036));
#1643=CARTESIAN_POINT('',(-0.02455,6.93889390390723E-18,0.0036));
#1644=CARTESIAN_POINT('',(-0.02455,0.0364,0.0036));
#1645=CARTESIAN_POINT('',(-0.02455,0.0364,0.0016));
#1646=CARTESIAN_POINT('',(-0.02455,6.93889390390723E-18,0.0016));
#1647=CARTESIAN_POINT('',(-0.02455,0.0406683523972199,0.0016));
#1648=CARTESIAN_POINT('',(-0.02455,0.0406683523972199,0.0036));
#1649=CARTESIAN_POINT('',(0.02455,-1.38777878078145E-17,0.0036));
#1650=CARTESIAN_POINT('',(0.02455,0.0304,0.0036));
#1651=CARTESIAN_POINT('',(0.02455,0.0304,0.0016));
#1652=CARTESIAN_POINT('',(0.02455,0.0304,0.0036));
#1653=CARTESIAN_POINT('',(0.02455,-1.38777878078145E-17,0.0016));
#1654=CARTESIAN_POINT('',(0.02455,-0.0304,0.0016));
#1655=CARTESIAN_POINT('',(0.02455,-0.0304,0.0036));
#1656=CARTESIAN_POINT('',(0.02455,-0.0304,0.0036));
#1657=CARTESIAN_POINT('',(0.02455,-1.38777878078145E-17,0.0036));
#1658=CARTESIAN_POINT('',(0.02455,-1.38777878078145E-17,0.0036));
#1659=CARTESIAN_POINT('',(0.02455,-0.0364,0.0036));
#1660=CARTESIAN_POINT('',(0.02455,-0.0364,0.0016));
#1661=CARTESIAN_POINT('',(0.02455,-1.38777878078145E-17,0.0016));
#1662=CARTESIAN_POINT('',(6.93889390390723E-18,0.,0.0036));
#1663=CARTESIAN_POINT('',(0.02615,-1.38777878078145E-17,0.0036));
#1664=CARTESIAN_POINT('',(0.02615,0.0304,0.0036));
#1665=CARTESIAN_POINT('',(0.02615,-0.0304,0.0036));
#1666=CARTESIAN_POINT('',(6.93889390390723E-18,0.0304,0.0036));
#1667=CARTESIAN_POINT('',(6.93889390390723E-18,-0.0304,0.0036));
#1668=CARTESIAN_POINT('',(6.93889390390723E-18,0.,0.0036));
#1669=CARTESIAN_POINT('',(-0.02615,6.93889390390723E-18,0.0036));
#1670=CARTESIAN_POINT('',(-0.02615,0.0304,0.0036));
#1671=CARTESIAN_POINT('',(-0.02615,-0.0304,0.0036));
#1672=CARTESIAN_POINT('',(6.93889390390723E-18,-0.0304,0.0036));
#1673=CARTESIAN_POINT('',(6.93889390390723E-18,0.0304,0.0036));
#1674=CARTESIAN_POINT('',(6.93889390390723E-18,0.,0.0036));
#1675=CARTESIAN_POINT('',(-0.0041,-0.0450463341082226,0.0036));
#1676=CARTESIAN_POINT('',(-0.0041,-0.0445904278727429,0.0036));
#1677=CARTESIAN_POINT('',(-0.0041,-0.046192668216445,0.0036));
#1678=CARTESIAN_POINT('',(1.90819582357449E-17,0.03206225,0.0036));
#1679=CARTESIAN_POINT('',(-0.02455,-0.0406683523972199,0.0036));
#1680=CARTESIAN_POINT('',(-0.02455,6.93889390390723E-18,0.0036));
#1681=CARTESIAN_POINT('',(-0.02455,-0.0364,0.0036));
#1682=CARTESIAN_POINT('',(6.93889390390723E-18,-0.0364,0.0036));
#1683=CARTESIAN_POINT('',(-0.02615,-0.0364,0.0036));
#1684=CARTESIAN_POINT('',(-0.02615,6.93889390390723E-18,0.0036));
#1685=CARTESIAN_POINT('',(-0.02615,-0.0418080398671888,0.0036));
#1686=CARTESIAN_POINT('',(8.67361737988404E-18,0.03206225,0.0036));
#1687=CARTESIAN_POINT('',(6.93889390390723E-18,0.,0.0036));
#1688=CARTESIAN_POINT('',(0.0041,0.0450463341082225,0.0036));
#1689=CARTESIAN_POINT('',(0.02455,-1.38777878078145E-17,0.0036));
#1690=CARTESIAN_POINT('',(0.02455,0.0364,0.0036));
#1691=CARTESIAN_POINT('',(6.93889390390723E-18,0.0364,0.0036));
#1692=CARTESIAN_POINT('',(0.02615,0.0364,0.0036));
#1693=CARTESIAN_POINT('',(0.02615,-1.38777878078145E-17,0.0036));
#1694=CARTESIAN_POINT('',(1.7347234759768E-18,-0.03206225,0.0016));
#1695=CARTESIAN_POINT('',(0.02785,0.043,0.0016));
#1696=CARTESIAN_POINT('',(0.02785,0.043,0.0016));
#1697=CARTESIAN_POINT('',(0.02785,0.043,0.001));
#1698=CARTESIAN_POINT('',(1.7347234759768E-18,-0.03206225,0.001));
#1699=CARTESIAN_POINT('',(-0.02785,0.043,0.001));
#1700=CARTESIAN_POINT('',(-0.02785,0.043,0.0016));
#1701=CARTESIAN_POINT('',(-0.02785,0.043,0.0016));
#1702=CARTESIAN_POINT('',(1.7347234759768E-18,-0.03206225,0.0016));
#1703=CARTESIAN_POINT('',(-0.02785,0.,0.0016));
#1704=CARTESIAN_POINT('',(-0.02785,0.,0.001));
#1705=CARTESIAN_POINT('',(-0.02785,-0.043,0.001));
#1706=CARTESIAN_POINT('',(-0.02785,-0.043,0.0016));
#1707=CARTESIAN_POINT('',(-0.02785,-0.043,0.0016));
#1708=CARTESIAN_POINT('',(-0.02785,0.,0.0016));
#1709=CARTESIAN_POINT('',(8.67361737988404E-18,0.03206225,0.0016));
#1710=CARTESIAN_POINT('',(8.67361737988404E-18,0.03206225,0.001));
#1711=CARTESIAN_POINT('',(0.02785,-0.043,0.001));
#1712=CARTESIAN_POINT('',(0.02785,-0.043,0.0016));
#1713=CARTESIAN_POINT('',(0.02785,-0.043,0.0016));
#1714=CARTESIAN_POINT('',(8.67361737988404E-18,0.03206225,0.0016));
#1715=CARTESIAN_POINT('',(0.02785,0.,0.0016));
#1716=CARTESIAN_POINT('',(0.02785,0.043,0.001));
#1717=CARTESIAN_POINT('',(0.02785,0.,0.0016));
#1718=CARTESIAN_POINT('',(0.,6.93889390390723E-18,0.0016));
#1719=CARTESIAN_POINT('',(0.,-0.0439,0.0016));
#1720=CARTESIAN_POINT('',(0.00175,-0.0439,0.0016));
#1721=CARTESIAN_POINT('',(1.2246467991476E-20,0.0439,0.0016));
#1722=CARTESIAN_POINT('',(0.00175,0.0439,0.0016));
#1723=CARTESIAN_POINT('',(1.90819582357449E-17,0.03206225,0.0016));
#1724=CARTESIAN_POINT('',(-0.02455,-0.0406683523972199,0.0016));
#1725=CARTESIAN_POINT('',(-0.0041,-0.0445904278727429,0.0016));
#1726=CARTESIAN_POINT('',(-0.0041,-0.0450463341082226,0.0016));
#1727=CARTESIAN_POINT('',(-0.0041,-0.046192668216445,0.0016));
#1728=CARTESIAN_POINT('',(8.67361737988404E-18,0.03206225,0.0016));
#1729=CARTESIAN_POINT('',(-0.02615,-0.0418080398671888,0.0016));
#1730=CARTESIAN_POINT('',(-0.02615,6.93889390390723E-18,0.0016));
#1731=CARTESIAN_POINT('',(-0.02615,0.0418080398671888,0.0016));
#1732=CARTESIAN_POINT('',(8.67361737988404E-18,-0.03206225,0.0016));
#1733=CARTESIAN_POINT('',(-0.0041,0.046192668216445,0.0016));
#1734=CARTESIAN_POINT('',(-0.0041,0.0450463341082225,0.0016));
#1735=CARTESIAN_POINT('',(-0.0041,0.0445904278727429,0.0016));
#1736=CARTESIAN_POINT('',(-6.93889390390723E-18,-0.03206225,0.0016));
#1737=CARTESIAN_POINT('',(-0.02345,0.0364,0.0016));
#1738=CARTESIAN_POINT('',(-0.02075,0.0364,0.0016));
#1739=CARTESIAN_POINT('',(-0.02075,0.0334,0.0016));
#1740=CARTESIAN_POINT('',(-0.02075,0.0304,0.0016));
#1741=CARTESIAN_POINT('',(-0.02345,0.0304,0.0016));
#1742=CARTESIAN_POINT('',(-0.02345,-0.0304,0.0016));
#1743=CARTESIAN_POINT('',(-0.02075,-0.0304,0.0016));
#1744=CARTESIAN_POINT('',(-0.02075,-0.0334,0.0016));
#1745=CARTESIAN_POINT('',(-0.02075,-0.0364,0.0016));
#1746=CARTESIAN_POINT('',(-0.02345,-0.0364,0.0016));
#1747=CARTESIAN_POINT('',(-0.02455,-0.0364,0.0016));
#1748=CARTESIAN_POINT('',(-0.02455,6.93889390390723E-18,0.0016));
#1749=CARTESIAN_POINT('',(0.0041,-0.0450463341082226,0.0016));
#1750=CARTESIAN_POINT('',(0.02345,-0.0364,0.0016));
#1751=CARTESIAN_POINT('',(0.02075,-0.0364,0.0016));
#1752=CARTESIAN_POINT('',(0.02075,-0.0334,0.0016));
#1753=CARTESIAN_POINT('',(0.02075,-0.0304,0.0016));
#1754=CARTESIAN_POINT('',(0.02345,-0.0304,0.0016));
#1755=CARTESIAN_POINT('',(0.02345,0.0304,0.0016));
#1756=CARTESIAN_POINT('',(0.02075,0.0304,0.0016));
#1757=CARTESIAN_POINT('',(0.02075,0.0334,0.0016));
#1758=CARTESIAN_POINT('',(0.02075,0.0364,0.0016));
#1759=CARTESIAN_POINT('',(0.02345,0.0364,0.0016));
#1760=CARTESIAN_POINT('',(0.02455,0.0364,0.0016));
#1761=CARTESIAN_POINT('',(0.02455,-1.38777878078145E-17,0.0016));
#1762=CARTESIAN_POINT('',(0.0041,0.0450463341082225,0.0016));
#1763=CARTESIAN_POINT('',(0.02615,-1.38777878078145E-17,0.0016));
#1764=CARTESIAN_POINT('',(0.,6.93889390390723E-18,0.));
#1765=CARTESIAN_POINT('',(0.02685,-0.043,0.));
#1766=CARTESIAN_POINT('',(0.02685,0.0423011608622144,0.));
#1767=CARTESIAN_POINT('',(0.02685,-0.0423011608622144,0.));
#1768=CARTESIAN_POINT('',(8.67361737988404E-18,0.03206225,0.));
#1769=CARTESIAN_POINT('',(-0.02685,-0.0423011608622144,0.));
#1770=CARTESIAN_POINT('',(-0.02685,1.12716683532074E-17,0.));
#1771=CARTESIAN_POINT('',(-0.02685,0.0423011608622144,0.));
#1772=CARTESIAN_POINT('',(1.7347234759768E-18,-0.03206225,0.));
#1773=CARTESIAN_POINT('',(0.,-0.0439,0.));
#1774=CARTESIAN_POINT('',(0.003,-0.0439,0.));
#1775=CARTESIAN_POINT('',(1.2246467991476E-20,0.0439,0.));
#1776=CARTESIAN_POINT('',(0.003,0.0439,0.));
#1777=CARTESIAN_POINT('',(-0.02615,6.93889390390723E-18,0.0036));
#1778=CARTESIAN_POINT('',(-0.02615,-0.0364,0.015));
#1779=CARTESIAN_POINT('',(-0.02615,-0.0364,0.015));
#1780=CARTESIAN_POINT('',(-0.02615,-0.0334,0.015));
#1781=CARTESIAN_POINT('',(-0.02615,-0.0304,0.015));
#1782=CARTESIAN_POINT('',(-0.02615,-0.0304,0.015));
#1783=CARTESIAN_POINT('',(-0.02615,0.0304,0.015));
#1784=CARTESIAN_POINT('',(-0.02615,0.0304,0.015));
#1785=CARTESIAN_POINT('',(-0.02615,0.0334,0.015));
#1786=CARTESIAN_POINT('',(-0.02615,0.0364,0.015));
#1787=CARTESIAN_POINT('',(-0.02615,0.0364,0.015));
#1788=CARTESIAN_POINT('',(-0.02615,0.0418080398671888,0.0036));
#1789=CARTESIAN_POINT('',(-0.02615,-0.0418080398671888,0.0036));
#1790=CARTESIAN_POINT('',(8.67361737988404E-18,0.03206225,0.0036));
#1791=CARTESIAN_POINT('',(-0.0041,-0.046192668216445,0.001598));
#1792=CARTESIAN_POINT('',(0.02615,-1.38777878078145E-17,0.0036));
#1793=CARTESIAN_POINT('',(0.02615,0.0364,0.015));
#1794=CARTESIAN_POINT('',(0.02615,0.0364,0.015));
#1795=CARTESIAN_POINT('',(0.02615,0.0334,0.015));
#1796=CARTESIAN_POINT('',(0.02615,0.0304,0.015));
#1797=CARTESIAN_POINT('',(0.02615,0.0304,0.015));
#1798=CARTESIAN_POINT('',(0.02615,-0.0304,0.015));
#1799=CARTESIAN_POINT('',(0.02615,-0.0304,0.015));
#1800=CARTESIAN_POINT('',(0.02615,-0.0334,0.015));
#1801=CARTESIAN_POINT('',(0.02615,-0.0364,0.015));
#1802=CARTESIAN_POINT('',(0.02615,-0.0364,0.015));
#1803=CARTESIAN_POINT('',(1.90819582357449E-17,0.03206225,0.0036));
#1804=CARTESIAN_POINT('',(-0.0041,-0.0445904278727429,0.001598));
#1805=CARTESIAN_POINT('',(-0.02455,-0.0406683523972199,0.0036));
#1806=CARTESIAN_POINT('',(-0.02455,6.93889390390723E-18,0.0036));
#1807=CARTESIAN_POINT('',(-0.02455,-0.0364,0.0036));
#1808=CARTESIAN_POINT('',(-6.93889390390723E-18,-0.03206225,0.0036));
#1809=CARTESIAN_POINT('',(-0.0041,0.0445904278727429,0.001598));
#1810=CARTESIAN_POINT('',(0.02455,-1.38777878078145E-17,0.0036));
#1811=CARTESIAN_POINT('',(0.02455,0.0364,0.0036));
#1812=CARTESIAN_POINT('',(8.67361737988404E-18,-0.03206225,0.0036));
#1813=CARTESIAN_POINT('',(-0.0041,0.046192668216445,0.001598));
#1814=CARTESIAN_POINT('',(-0.02075,0.0334,0.015));
#1815=CARTESIAN_POINT('',(-0.02075,0.0364,0.015));
#1816=CARTESIAN_POINT('',(-0.02075,0.0364,0.015));
#1817=CARTESIAN_POINT('',(-0.02075,0.0334,0.015));
#1818=CARTESIAN_POINT('',(-0.02075,0.0304,0.015));
#1819=CARTESIAN_POINT('',(-0.02075,0.0304,0.015));
#1820=CARTESIAN_POINT('',(-0.02345,0.0364,0.015));
#1821=CARTESIAN_POINT('',(-0.02345,0.0364,0.015));
#1822=CARTESIAN_POINT('',(-0.02345,0.0304,0.015));
#1823=CARTESIAN_POINT('',(-0.02345,0.0304,0.015));
#1824=CARTESIAN_POINT('',(0.,0.,0.015));
#1825=CARTESIAN_POINT('',(-0.02075,0.0334,0.015));
#1826=CARTESIAN_POINT('',(-0.01925,0.0334,0.015));
#1827=CARTESIAN_POINT('',(0.02345,-0.0304,0.015));
#1828=CARTESIAN_POINT('',(0.02075,-0.0304,0.015));
#1829=CARTESIAN_POINT('',(0.02075,-0.0304,0.015));
#1830=CARTESIAN_POINT('',(0.02345,-0.0304,0.015));
#1831=CARTESIAN_POINT('',(0.02345,-0.0364,0.015));
#1832=CARTESIAN_POINT('',(0.02345,-0.0364,0.015));
#1833=CARTESIAN_POINT('',(0.02075,-0.0364,0.015));
#1834=CARTESIAN_POINT('',(0.02075,-0.0364,0.015));
#1835=CARTESIAN_POINT('',(0.02075,-0.0334,0.015));
#1836=CARTESIAN_POINT('',(0.02075,-0.0334,0.015));
#1837=CARTESIAN_POINT('',(0.,0.,0.015));
#1838=CARTESIAN_POINT('',(0.02075,-0.0334,0.015));
#1839=CARTESIAN_POINT('',(0.02225,-0.0334,0.015));
#1840=CARTESIAN_POINT('',(-0.02075,-0.0334,0.015));
#1841=CARTESIAN_POINT('',(-0.02075,-0.0304,0.015));
#1842=CARTESIAN_POINT('',(-0.02075,-0.0304,0.015));
#1843=CARTESIAN_POINT('',(-0.02075,-0.0334,0.015));
#1844=CARTESIAN_POINT('',(-0.02075,-0.0364,0.015));
#1845=CARTESIAN_POINT('',(-0.02075,-0.0364,0.015));
#1846=CARTESIAN_POINT('',(-0.02345,-0.0304,0.015));
#1847=CARTESIAN_POINT('',(-0.02345,-0.0304,0.015));
#1848=CARTESIAN_POINT('',(-0.02345,-0.0364,0.015));
#1849=CARTESIAN_POINT('',(-0.02345,-0.0364,0.015));
#1850=CARTESIAN_POINT('',(0.,0.,0.015));
#1851=CARTESIAN_POINT('',(-0.02075,-0.0334,0.015));
#1852=CARTESIAN_POINT('',(-0.01925,-0.0334,0.015));
#1853=CARTESIAN_POINT('',(0.02345,0.0364,0.015));
#1854=CARTESIAN_POINT('',(0.02075,0.0364,0.015));
#1855=CARTESIAN_POINT('',(0.02075,0.0364,0.015));
#1856=CARTESIAN_POINT('',(0.02345,0.0364,0.015));
#1857=CARTESIAN_POINT('',(0.02345,0.0304,0.015));
#1858=CARTESIAN_POINT('',(0.02345,0.0304,0.015));
#1859=CARTESIAN_POINT('',(0.02075,0.0304,0.015));
#1860=CARTESIAN_POINT('',(0.02075,0.0304,0.015));
#1861=CARTESIAN_POINT('',(0.02075,0.0334,0.015));
#1862=CARTESIAN_POINT('',(0.02075,0.0334,0.015));
#1863=CARTESIAN_POINT('',(0.,0.,0.015));
#1864=CARTESIAN_POINT('',(0.02075,0.0334,0.015));
#1865=CARTESIAN_POINT('',(0.02225,0.0334,0.015));
#1866=CARTESIAN_POINT('',(0.02075,0.0334,0.0162));
#1867=CARTESIAN_POINT('',(0.02075,0.0334,0.0162));
#1868=CARTESIAN_POINT('',(0.02225,0.0334,0.0162));
#1869=CARTESIAN_POINT('',(-0.00195,-0.00075,0.0162));
#1870=CARTESIAN_POINT('',(-0.02075,-0.0334,0.0162));
#1871=CARTESIAN_POINT('',(-0.02075,-0.0334,0.0162));
#1872=CARTESIAN_POINT('',(-0.01925,-0.0334,0.0162));
#1873=CARTESIAN_POINT('',(-0.00195,-0.00075,0.0162));
#1874=CARTESIAN_POINT('',(0.02075,-0.0334,0.0162));
#1875=CARTESIAN_POINT('',(0.02075,-0.0334,0.0162));
#1876=CARTESIAN_POINT('',(0.02225,-0.0334,0.0162));
#1877=CARTESIAN_POINT('',(-0.00195,-0.00075,0.0162));
#1878=CARTESIAN_POINT('',(-0.02075,0.0334,0.0162));
#1879=CARTESIAN_POINT('',(-0.02075,0.0334,0.0162));
#1880=CARTESIAN_POINT('',(-0.01925,0.0334,0.0162));
#1881=CARTESIAN_POINT('',(-0.00195,-0.00075,0.0162));
#1882=CARTESIAN_POINT('',(0.0041,0.0450463341082225,0.001598));
#1883=CARTESIAN_POINT('',(-0.0041,0.0450463341082225,0.001598));
#1884=CARTESIAN_POINT('',(-0.0041,-0.0450463341082226,0.001598));
#1885=CARTESIAN_POINT('',(0.0041,-0.0450463341082226,0.001598));
#1886=CARTESIAN_POINT('',(1.2246467991476E-20,0.0439,0.));
#1887=CARTESIAN_POINT('',(1.2246467991476E-20,0.0439,0.00125));
#1888=CARTESIAN_POINT('',(0.00175,0.0439,0.00125));
#1889=CARTESIAN_POINT('',(1.2246467991476E-20,0.0439,0.));
#1890=CARTESIAN_POINT('',(0.,-0.0439,0.));
#1891=CARTESIAN_POINT('',(0.,-0.0439,0.00125));
#1892=CARTESIAN_POINT('',(0.00175,-0.0439,0.00125));
#1893=CARTESIAN_POINT('',(0.,-0.0439,0.));
#1894=CARTESIAN_POINT('',(1.7347234759768E-18,-0.03206225,0.001));
#1895=CARTESIAN_POINT('',(0.02785,0.043,0.001));
#1896=CARTESIAN_POINT('',(0.02785,0.043,0.000705457441606642));
#1897=CARTESIAN_POINT('',(0.0275730539364574,0.042807512818034,0.000164084291879047));
#1898=CARTESIAN_POINT('',(0.0270872902419029,0.0424677635657525,-3.135342874409E-18));
#1899=CARTESIAN_POINT('',(0.02685,0.0423011608622144,-1.27173909290852E-35));
#1900=CARTESIAN_POINT('',(-0.02785,0.043,0.001));
#1901=CARTESIAN_POINT('',(-0.02785,0.043,0.000705457441606641));
#1902=CARTESIAN_POINT('',(-0.0275730539364577,0.0428075128180334,0.000164084291879051));
#1903=CARTESIAN_POINT('',(-0.0270872902419021,0.0424677635657536,1.61977225781641E-18));
#1904=CARTESIAN_POINT('',(-0.02685,0.0423011608622144,7.39407347231026E-33));
#1905=CARTESIAN_POINT('',(-0.02685,-1.61369625672261E-19,0.001));
#1906=CARTESIAN_POINT('',(-0.02785,-0.043,0.001));
#1907=CARTESIAN_POINT('',(-0.02785,-0.043,0.000705457441606643));
#1908=CARTESIAN_POINT('',(-0.0275730539364574,-0.042807512818034,0.000164084291879046));
#1909=CARTESIAN_POINT('',(-0.0270872902419029,-0.0424677635657525,-3.95860878090787E-18));
#1910=CARTESIAN_POINT('',(-0.02685,-0.0423011608622144,-4.91094137324801E-31));
#1911=CARTESIAN_POINT('',(0.02685,2.60611945460701E-18,0.001));
#1912=CARTESIAN_POINT('',(0.02785,-0.043,0.001));
#1913=CARTESIAN_POINT('',(0.02785,-0.043,0.000705457441606642));
#1914=CARTESIAN_POINT('',(0.0275730539364577,-0.0428075128180335,0.000164084291879037));
#1915=CARTESIAN_POINT('',(0.0270872902419021,-0.0424677635657536,1.61977225781623E-18));
#1916=CARTESIAN_POINT('',(0.02685,-0.0423011608622144,-1.67323836342353E-31));
#1917=CARTESIAN_POINT('',(8.67361737988404E-18,0.03206225,0.001));
#1918=MECHANICAL_DESIGN_GEOMETRIC_PRESENTATION_REPRESENTATION('',(#1133),
#1919);
#1919=(
GEOMETRIC_REPRESENTATION_CONTEXT(3)
GLOBAL_UNCERTAINTY_ASSIGNED_CONTEXT((#1920))
GLOBAL_UNIT_ASSIGNED_CONTEXT((#1923,#1922,#1921))
REPRESENTATION_CONTEXT('BottomHousing','TOP_LEVEL_ASSEMBLY_PART')
);
#1920=UNCERTAINTY_MEASURE_WITH_UNIT(LENGTH_MEASURE(2.E-5),#1923,
'DISTANCE_ACCURACY_VALUE','Maximum Tolerance applied to model');
#1921=(
NAMED_UNIT(*)
SI_UNIT($,.STERADIAN.)
SOLID_ANGLE_UNIT()
);
#1922=(
NAMED_UNIT(*)
PLANE_ANGLE_UNIT()
SI_UNIT($,.RADIAN.)
);
#1923=(
LENGTH_UNIT()
NAMED_UNIT(*)
SI_UNIT($,.METRE.)
);
#1924=PRODUCT_DEFINITION_SHAPE('','',#1925);
#1925=PRODUCT_DEFINITION('','',#1927,#1926);
#1926=PRODUCT_DEFINITION_CONTEXT('',#1933,'design');
#1927=PRODUCT_DEFINITION_FORMATION_WITH_SPECIFIED_SOURCE('','',#1929,
 .NOT_KNOWN.);
#1928=PRODUCT_RELATED_PRODUCT_CATEGORY('','',(#1929));
#1929=PRODUCT('BottomHousing','BottomHousing','BottomHousing',(#1931));
#1930=PRODUCT_CATEGORY('','');
#1931=PRODUCT_CONTEXT('',#1933,'mechanical');
#1932=APPLICATION_PROTOCOL_DEFINITION('international standard',
'ap242_managed_model_based_3d_engineering',2020,#1933);
#1933=APPLICATION_CONTEXT('managed model based 3d engineering');
ENDSEC;
END-ISO-10303-21;
